<?xml version="1.0" encoding="utf-8"?>
<!-- Generator: Adobe Illustrator 28.0.0, SVG Export Plug-In . SVG Version: 6.00 Build 0)  -->
<svg version="1.1" id="Layer_1" xmlns="http://www.w3.org/2000/svg" xmlns:xlink="http://www.w3.org/1999/xlink" x="0px" y="0px"
	 viewBox="0 0 300 63.8" style="enable-background:new 0 0 300 63.8;" xml:space="preserve">
<style type="text/css">
	.st0{fill-rule:evenodd;clip-rule:evenodd;fill:#FFFFFF;}
	.st1{fill:#FFFFFF;}
	.st2{fill:#EC1C24;}
	.st3{fill-rule:evenodd;clip-rule:evenodd;fill:#EC1C24;}
</style>
<g>
	<path class="st0" d="M21,27.4h22.9l2.2-7.3H23.2l3-10H12.5L0.1,51h5.2c5.4-0.6,9-2.4,10.3-5.9L21,27.4z"/>
	<path class="st0" d="M160,26.5c1.3-3.1,5.4-7.3,12-7.3c6.8,0,7.7,4,6.6,7.3H160z M189.2,32.3c0.6-0.9,1-2.1,1.4-3.3
		c3.1-10.1-3.5-15.5-16-15.5c-15.2,0-26,7.8-28.8,16.8c-2.9,9.7,4.3,15.8,20.3,15.8c6.4,0,12.7-0.7,17.3-1.8l-0.2-5.7
		c-3.8,0.7-7.9,1.3-13,1.3c-7.4,0-13.1-2.1-11.9-7.5H189.2z M118.8,14.1l-1.9,6.1h8.1l-4.4,14.5c-1.1,3.5-3.1,11.3,11.7,11.3
		c4,0,7.4-0.3,9.4-0.7l1.7-6.4c-1.4,0.2-2.6,0.3-4.5,0.3c-4.2,0-5.7-1.6-4.5-5.3l4.1-13.6l8.1-0.1c4.4-0.2,6.7-1.6,7.9-3.5l0.8-2.6
		h-14.9L143,6l-14.3,2.4l-1.7,5.7H118.8z M100.4,34.8c-1.2,4-7,5.4-10.3,5.4c-3.4,0-6.1-1.3-5.2-4.3c1.4-4.6,9.4-5.6,16.8-5.6
		L100.4,34.8z M82,21.6c3.7-1.2,8.6-2.1,13.4-2.1c7.5,0,8.6,2.4,7.6,5.5c-16.5,0-29.4,3.8-31.8,11.8c-1.5,5.1,3.1,9.4,12.7,9.4
		c5.8,0,11.2-1.4,14.9-3.9h0.3l-0.1,3.3h12.4c0-1.9,0.7-4.7,1.5-7.4l3.5-11.5c2.1-6.9-0.4-13.1-16.5-13.1c-8.1,0-14.9,1.4-18.7,2.6
		L82,21.6z M62.9,19.6l1.1-5.5H52.2c-0.7,2.8-1.4,5.9-2.6,9.8l-6.5,21.6h13.8l4.9-16.2c1.6-5.3,7.1-7.9,13.3-7.9
		c1.4,0,2.5,0.1,3.5,0.2l2.4-7.9c-0.9-0.1-1.7-0.2-3-0.2c-4.8,0-11,2.1-14.7,6.1H62.9z"/>
	<path class="st1" d="M201.6,0.1l-11.8,39.1c-1.1,3.5,0.9,5.7,6.8,6.1h5.1l13.7-45.3H201.6z"/>
	<path class="st1" d="M220.6,0.1l-11.8,39.1c-1.1,3.5,0.9,5.7,6.8,6.1h5.1l13.7-45.3H220.6z"/>
	<polygon class="st1" points="235.5,14.1 226,45.5 239.8,45.5 249.2,14.1 	"/>
	<path class="st2" d="M252.4,5.1c0.9-2.9-1.5-5-5.9-5c-4.3,0-8,2.1-8.9,5c-0.9,2.9,1.5,5,5.8,5C247.8,10.1,251.5,8.1,252.4,5.1"/>
	<path class="st3" d="M4.1,0h54.6l-1.5,5c-0.6,1.9-2.9,3.4-5.3,3.4H1.6L4.1,0z"/>
	<path class="st3" d="M276,39.6c1-1,2.1-1.7,3.4-2.1c0.1,0,0.2,0,0.2,0.1l0,0c0.1,0.1,0.1,0.2,0,0.3c-0.4,0.5-1,0.9-1.6,1.2
		c-0.6,0.3-1.2,0.7-1.9,0.8c-0.1,0-0.2,0-0.3-0.1C275.9,39.8,275.9,39.7,276,39.6 M278.9,42.9c-0.5,0.1-1,0.3-1.5,0.5
		c-0.9,0.3-1.8,0.6-2.8,0.7c-0.4,0.1-0.8,0-1.2-0.2c-0.4-0.3-0.5-0.6-0.3-1c0-0.2,0.2-0.4,0.3-0.6c0-0.1,0.1-0.1,0.2-0.1
		c1.6-0.1,3.9-1.5,5.2-2.3c1.1-0.7,3.5-2.3,3.8-3.7c0-0.1,0.1-0.3,0-0.5c-0.2-0.2-0.7-0.2-0.9-0.1c-2.3,0.3-4.8,2-6.5,3.3
		c-1.6,1.2-4,3.3-4.6,5.3c-0.1,0.5-0.2,1.1,0.4,1.4c0,0,0,0,0,0c0.5,0.3,1.4,0.3,2,0.2c0.9-0.1,1.8-0.4,2.7-0.7
		C277,44.6,281.9,42.1,278.9,42.9z M275.1,37c-0.3-0.6-0.7-0.9-1.4-0.8c-0.8,0.1-1.8,0.8-2.4,1.2c-1.7,1.2-3.1,2.6-4.4,4.2
		c-0.1,0.2-0.3,0.4-0.4,0.6c-0.2,0.3-0.5,0.7-0.7,1c-0.7,1-1.3,1.9-2,2.9c0.1,0,0.2,0,0.3,0c0.5-0.1,1.1-0.4,1.6-0.6
		c0.8-1,1.6-2.2,2.3-3.2c0.8-1.1,1.7-2.3,2.7-3.2c0.4-0.3,0.9-0.8,1.5-0.9c0.3,0,0.5,0,0.8,0c0.2,0,0.5,0.1,0.6,0
		C274.2,38,274.8,37.5,275.1,37z M218.3,46.8c-0.1,0.2-0.3,0.4-0.4,0.5c0,0,0,0,0,0c-0.1,0.2-0.3,0.4-0.4,0.5
		c-0.1,0.1-0.1,0.1-0.2,0.1c-0.1,0-0.2-0.1-0.2-0.1c-0.1-0.2-0.3-0.2-0.5-0.2c-0.2,0-0.4,0.2-0.6,0.3c-0.1,0.3-0.3,0.6-0.5,0.9
		c-0.4,0.6-0.7,1.2-1.1,1.9c-0.4,0.7-3.1,5-3.1,5.9c0.1,0,0.2,0,0.2,0c0,0,0,0,0,0c0.1,0,0.2,0,0.3,0c0.1,0,0.1,0,0.2,0
		c0.4-0.1,0.7-0.4,0.9-0.7c0.5-0.8,3.2-4.9,3.9-5.7c0.3-0.3,0.8-0.9,1.2-1c0.1,0,0.1,0,0.2,0c0.3,0.1,0.3,0.5,0.2,0.7
		c0,0.1,0,0.3-0.1,0.4c0,0.1,0,0.2-0.1,0.4c0,0,0,0.1,0,0.2c0,0,0.2,0,0.3,0c1-0.2,3.6-2.2,4.4-2.9c0.1-0.1,0.2-0.1,0.3,0
		c0.1,0.1,0.1,0.2,0.1,0.3c-0.2,0.5-0.4,1-0.6,1.5c-0.1,0.3-0.2,0.6-0.2,1c0,0.2,0,0.5,0.1,0.6c0.3,0.2,1.5-0.2,1.8-0.2
		c0.4-0.1,0.7-0.3,1-0.5c0.2-0.2,0.6-0.5,0.6-0.8c0-0.1-0.2-0.2-0.3-0.3c0,0,0,0,0,0c-0.2-0.1-1.5,0.1-1.4-0.2
		c0-0.3,0.1-0.6,0.2-0.9c0.2-0.5,0.4-1,0.6-1.4c0.2-0.5,0.4-1,0.6-1.4c0.1-0.3,0.2-0.6,0.2-0.9c0,0,0-0.2,0-0.3c0,0-0.1,0-0.1,0
		c-0.5,0.1-2.1,1.4-2.6,1.7c-0.7,0.5-1.3,1.1-2,1.6c-0.2,0.1-0.4,0.3-0.6,0.4c-0.1,0.1-0.2,0.2-0.3,0.2c-0.1,0-0.2,0-0.3,0
		c-0.1-0.1-0.1-0.2-0.1-0.3c0.1-0.4,0.2-0.7,0.2-1.1c0-0.3,0-0.9-0.2-1.1c-0.1-0.1-0.2-0.1-0.3,0C219.2,45.8,218.7,46.4,218.3,46.8z
		 M181.8,49c-0.2,0.2-0.3,0.5-0.5,0.7c-0.1,0.1-0.1,0.2-0.2,0.2c0,0.1,0,0.2-0.1,0.3c-0.6,1-1.7,3-1.6,4.2c0,0.3,0.1,0.6,0.3,0.8
		c0.3,0.4,0.9,0.4,1.4,0.4c3.1-0.1,5.8-1.1,8.2-3.1c1-0.8,2.1-2,2.2-3.4c0-0.2,0.2-0.4,0.4-0.4c0.5,0,1-0.1,1.5-0.2
		c0.8-0.2,1.7-0.3,2.5-0.5c0.2,0,0.4,0,0.5,0.2c0.1,0.2,0.1,0.4,0,0.5c-0.3,0.6-0.7,1.3-1.1,1.9c-0.4,0.6-0.7,1.3-1.1,1.9
		c-0.4,0.8-0.8,1.5-1.2,2.3c-0.1,0.2-0.4,0.8-0.4,1c0,0,0,0,0,0c0.1,0,0.2,0,0.2,0c1.1,0,2.1-1.4,2.6-2.2c0.5-0.9,1-1.8,1.5-2.7
		c0.6-1.1,1.2-2.1,1.7-3.2c0.1-0.1,0.2-0.2,0.3-0.2c0.8-0.1,7.8-1.3,8.6-1.5c0.6-0.1,1.2-0.3,1.8-0.5c0.4-0.1,0.7-0.3,1.1-0.4
		c0.1,0,0.3-0.2,0.3-0.2c0,0,0,0,0,0c0-0.1-0.2-0.1-0.2-0.1c-0.3-0.1-0.7-0.1-0.9-0.1c-0.4,0-0.8,0.1-1.1,0.1
		c-0.6,0.1-7.4,1.2-8,1.3c-0.2,0-0.4,0-0.5-0.2c-0.1-0.2-0.1-0.4,0-0.5c0.4-0.6,0.8-1.3,1.2-1.9c0.4-0.6,0.8-1.3,1.2-1.9
		c0,0,0,0,0,0c0.5-0.7,1-1.5,1.4-2.3c0.1-0.2,0.4-0.8,0.4-1c0,0,0,0,0-0.1c-0.1-0.1-0.6-0.1-0.7-0.1c-0.5,0-1,0.3-1.4,0.6
		c-0.1,0.1-0.2,0.2-0.3,0.3c-0.2,0.2-0.3,0.5-0.5,0.7c-0.5,0.8-1.1,1.7-1.5,2.6c0,0,0,0,0,0c-0.1,0.1-0.1,0.2-0.2,0.3
		c-0.2,0.3-0.3,0.5-0.4,0.8c-0.6,1-1.1,2-1.7,3c-0.1,0.1-0.2,0.2-0.3,0.2c-0.9,0.2-1.9,0.4-2.8,0.5c-0.3,0.1-0.5,0.1-0.8,0.2
		c-0.1,0-0.2,0-0.3,0.1c0,0,0,0,0,0c-0.5,0.1-1.1,0.3-1.6,0.6c-0.2,0.1-0.5,0-0.6-0.2c-0.4-0.6-1.2-0.7-1.8-0.7
		c-1.2,0-2,0.5-2.5,1.6c0,0,0,0.1-0.1,0.2c0.2,0.1,0.7,0.1,0.8,0.1c0.2,0,0.4,0,0.6-0.1c0.2-0.1,0.4,0,0.6,0.1
		c0.2,0.2,0.3,0.5,0.3,0.8c0,1.2-1.3,2.2-2.2,2.8c-1.1,0.7-2.5,1.4-3.8,1.5c-0.1,0-0.3,0-0.4-0.1c-0.3-0.3-0.5-0.7-0.6-1.2
		c0-0.7,0.5-1.6,0.9-2.2c0.2-0.3,0.8-1.2,0.7-1.6c0,0,0-0.1,0-0.2c-0.1-0.1-0.5-0.1-0.6-0.1C182.6,48.6,182.2,48.8,181.8,49z
		 M181.6,49c0-0.1,0-0.2,0.1-0.2c0.1-0.1,0.1-0.2,0.1-0.3c-0.1-0.1-0.3-0.2-0.3-0.3c-0.2-0.1-2,0.2-1.9,0c0.6-1.4,1.3-2.8,1.9-4.1
		c0.4-1,0.9-1.9,1.3-2.9c0,0,0,0,0,0c0.3-0.7,0.6-1.4,0.9-2.1c0.1-0.2,0.2-0.4,0.2-0.6c0-0.1,0.1-0.2,0.1-0.3c0-0.2,0-0.5-0.1-0.7
		c-0.3-0.4-1-0.4-1.5-0.4c-3.3,0.1-10.3,7.6-12.4,9.9c-2.1,2.3-7.5,8.7-9.5,11.1c-1.5,1.8-2.9,3.6-4.2,5.5c0.1,0.3,0.3,0.4,0.6,0.3
		c1.4-0.1,3.6-2.5,4.4-3.5c0.6-0.8,1.3-1.6,1.9-2.4c0.6-0.8,4.5-5.6,5.2-6.5c0.1-0.1,0.2-0.2,0.4-0.2c0.4-0.1,0.9-0.2,1.3-0.2
		c0.6-0.1,1.2-0.3,1.9-0.4c0.6-0.2,1.2-0.3,1.9-0.4c0.5-0.1,1-0.2,1.4-0.2c0.2,0,0.3,0,0.4,0.2c0.1,0.1,0.1,0.3,0,0.4
		c-0.2,0.5-0.4,0.9-0.6,1.4c-0.2,0.5-0.4,0.9-0.7,1.4c-0.3,0.8-0.7,1.7-0.8,2.6c0,0.1,0,0.2,0,0.3c0.4,0,0.8-0.1,1.2-0.1
		c0.4,0,0.7-0.2,1-0.4c0.1-0.4,0.2-0.7,0.4-1.1c0.2-0.5,0.4-0.9,0.6-1.4c0,0,0-0.1,0-0.1c0.1-0.2,0.2-0.4,0.3-0.6
		c0.3-0.6,0.9-1.9,1.3-2.5c0.1-0.1,1.7-0.1,1.8-0.2c0.3-0.1,0.7-0.3,1-0.6C181.4,49.1,181.5,49,181.6,49z M180.5,40.3
		c-0.2,0.2-0.3,0.5-0.4,0.7c0,0,0,0,0,0c-0.2,0.3-0.3,0.6-0.4,0.9c0,0,0,0,0,0l-2.9,6.3c-0.1,0.2-0.3,0.3-0.4,0.3
		c-1.1,0.2-2.1,0.3-3.2,0.5c-0.6,0.1-1.3,0.2-1.9,0.4c-0.2,0.1-0.4,0-0.5-0.2c-0.1-0.2-0.1-0.4,0.1-0.6c1.1-1.3,2.3-2.6,3.4-3.9
		c0.9-1,1.7-1.9,2.7-2.8c0.6-0.6,1.2-1.2,1.9-1.8c0.4-0.3,0.9-0.7,1.4-0.8c0.2,0,0.4,0,0.4,0.2l0,0.1
		C180.6,39.9,180.6,40.1,180.5,40.3z M283.3,41.3c0.7,0.3,1.3,0.6,2,0.9c0.7,0.3,1.4,0.6,2,0.9c0.4,0.2,0.4,0.7,0.2,1
		c-0.2,0.3-0.6,0.6-1,0.7c-1.2,0.2-13,2.5-14.2,2.7c-0.9,0.2-1.9,0.4-2.8,0.6c-0.5,0.1-0.9,0.2-1.4,0.4c-0.3,0.1-0.9,0.3-1.2,0.4
		c0.3,0,0.6,0,0.9,0c1.1,0,2.2-0.2,3.2-0.4c1.7-0.2,13.8-2.6,15.4-2.9c1.6-0.3,3.2-0.7,4.7-1.2c0.4-0.1,1.2-0.4,1.6-0.6
		c-0.1-0.2-0.2-0.3-0.3-0.5c-0.6-0.6-1.6-1.1-2.4-1.5c-1.1-0.5-2.2-1.1-3.2-1.7c-0.5-0.3-1.2-0.8-1.5-1.4c-0.1-0.3,0-0.6,0.2-0.8
		c0.2-0.3,0.5-0.5,0.8-0.6c1.8-0.6,3.6-1.2,5.4-1.6c1.2-0.3,2.5-0.6,3.8-0.6c0.4,0,0.8,0,1.2,0.1c0.3,0,0.6,0.1,0.9,0.1
		c0.5,0,0.9-0.2,1.3-0.5c0.4-0.3,0.7-0.6,0.9-1c0,0,0,0,0,0c-0.2-0.1-0.6-0.1-0.7-0.1c-2.9,0.1-6,0.7-8.8,1.4
		c-2.1,0.5-6.2,1.6-7.8,3.2c-0.1,0.1-0.1,0.1-0.2,0.2c-0.1,0.1-0.2,0.2-0.3,0.2c0,0.1-0.1,0.2-0.1,0.3c0,0,0,0,0,0
		C281.5,40.1,282.5,40.9,283.3,41.3z M265.1,42.2c0-0.1-0.1-0.2-0.1-0.2c0,0,0,0,0-0.1c0-0.7-0.4-1.2-1-1.6
		c-0.7-0.5-1.6-0.7-2.4-0.6c-2.2,0.1-4.3,1.5-5.9,2.8c-1.5,1.2-3.1,2.8-3.9,4.6c-0.1,0.3-0.4,0.9-0.4,1.2c0,0.1,0,0.1,0,0.2
		c0.2,0.5,1.6,0.4,2.1,0.4c2.2-0.1,4.7-1.2,6.6-2.2c1.4-0.8,4-2.3,4.7-3.8c0.1-0.1,0.1-0.2,0.1-0.4C265,42.3,265,42.2,265.1,42.2z
		 M240.1,44.9c0-0.1-0.1-0.2-0.1-0.2c0,0,0,0,0-0.1c0-0.3-0.1-0.5-0.2-0.7c0.4-0.1,0.9-0.1,1.3-0.2c0.8-0.2,1.7-0.3,2.5-0.5
		c0.2,0,0.4,0,0.5,0.2c0.1,0.2,0.1,0.4,0,0.5c-0.3,0.6-0.7,1.3-1.1,1.9c-0.4,0.6-0.7,1.3-1.1,1.9c-0.4,0.8-0.8,1.5-1.2,2.3
		c-0.1,0.2-0.4,0.8-0.4,1c0,0,0,0,0,0c0.1,0,0.2,0,0.2,0c1.1,0,2.1-1.4,2.6-2.2c0.5-0.9,1-1.8,1.5-2.7c0.6-1.1,1.2-2.1,1.7-3.2
		c0.1-0.1,0.2-0.2,0.3-0.2c0.8-0.1,7.8-1.3,8.6-1.5c0.6-0.1,1.2-0.3,1.8-0.5c0.4-0.1,0.8-0.3,1.1-0.4c0.1,0,0.3-0.2,0.3-0.2
		c0,0,0,0,0,0c0-0.1-0.2-0.1-0.2-0.1c-0.3-0.1-0.7-0.1-0.9-0.1c-0.4,0-0.8,0.1-1.1,0.1c-0.6,0.1-7.4,1.2-8,1.3c-0.2,0-0.4,0-0.5-0.2
		c-0.1-0.2-0.1-0.4,0-0.5c0.4-0.6,0.8-1.3,1.2-1.9c0.4-0.6,0.8-1.3,1.2-1.9c0,0,0,0,0,0c0.5-0.7,1-1.5,1.4-2.3
		c0.1-0.2,0.4-0.8,0.4-1c0,0,0,0,0-0.1c-0.1-0.1-0.6-0.1-0.7-0.1c-0.5,0-1,0.3-1.4,0.6c-0.1,0.1-0.2,0.2-0.3,0.3
		c-0.2,0.2-0.3,0.5-0.5,0.7c-0.5,0.8-1.1,1.7-1.5,2.6c0,0,0,0,0,0c-0.1,0.1-0.1,0.2-0.2,0.3c-0.2,0.3-0.3,0.5-0.4,0.8
		c-0.6,1-1.1,2-1.7,3c-0.1,0.1-0.2,0.2-0.3,0.2c-0.9,0.2-1.9,0.4-2.8,0.5c-0.3,0.1-0.5,0.1-0.8,0.2c-0.1,0-0.2,0-0.3,0.1
		c0,0,0,0,0,0c-0.5,0.1-1.1,0.3-1.6,0.6c-0.1,0-0.2,0.1-0.3,0.1c-0.1-0.1-0.2-0.1-0.2-0.2c-0.7-0.5-1.6-0.7-2.4-0.6
		c-2.2,0.1-4.3,1.5-5.9,2.8c-1.5,1.2-3.1,2.8-3.9,4.6c-0.1,0.3-0.4,0.9-0.4,1.2c0,0.1,0,0.1,0,0.2c0.2,0.5,1.6,0.4,2.1,0.4
		c2.2-0.1,4.7-1.2,6.6-2.2c1.4-0.8,4-2.3,4.7-3.8c0.1-0.1,0.1-0.2,0.1-0.4C240,45,240.1,45,240.1,44.9z M214.6,48.1
		c0-0.1-0.1-0.2-0.1-0.2c0,0,0,0,0-0.1c0-0.7-0.4-1.2-1-1.6c-0.7-0.5-1.6-0.7-2.4-0.6c-2.2,0.1-4.3,1.5-5.9,2.8
		c-1.5,1.2-3.1,2.8-3.9,4.6c-0.1,0.3-0.4,0.9-0.4,1.2c0,0.1,0,0.1,0,0.2c0.2,0.5,1.6,0.4,2.1,0.4c2.2-0.1,4.7-1.2,6.6-2.2
		c1.4-0.8,4-2.3,4.7-3.8c0.1-0.1,0.1-0.2,0.1-0.4C214.4,48.2,214.5,48.1,214.6,48.1z M254.3,46.3c0.1-0.2,0.2-0.4,0.2-0.5
		c0.4-0.9,1.7-1.9,2.4-2.5c0.7-0.6,2.1-1.8,3.2-1.8c0.5,0,1,0.1,1.5,0.3c0.5,0.2,1.1,0.5,1.1,1.1c0,1-1,1.7-1.8,2.2
		c-0.6,0.3-1.3,0.6-2,0.9c-0.9,0.3-1.8,0.6-2.8,0.8c-0.3,0.1-0.6,0.2-0.9,0.2c-0.1,0-0.3,0.1-0.4,0.1c-0.2,0-0.3-0.1-0.4-0.2
		c-0.1-0.1-0.1-0.3-0.1-0.5C254.3,46.4,254.3,46.3,254.3,46.3C254.3,46.3,254.3,46.3,254.3,46.3z M229.4,49c0.1-0.2,0.2-0.4,0.2-0.5
		c0.4-0.9,1.7-1.9,2.4-2.5c0.7-0.6,2.1-1.8,3.2-1.8c0.5,0,1,0.1,1.5,0.3c0.5,0.2,1.1,0.5,1.1,1.1c0,1-1,1.7-1.8,2.2
		c-0.6,0.3-1.3,0.6-2,0.9c-0.9,0.3-1.8,0.6-2.8,0.8c-0.3,0.1-0.6,0.2-0.9,0.2c-0.1,0-0.3,0.1-0.4,0.1c-0.2,0-0.3-0.1-0.4-0.2
		c-0.1-0.1-0.1-0.3-0.1-0.5C229.3,49.1,229.3,49.1,229.4,49C229.4,49,229.4,49,229.4,49z M203.8,52.2c0.1-0.2,0.2-0.4,0.2-0.5
		c0.4-0.9,1.7-1.9,2.4-2.5c0.7-0.6,2.1-1.8,3.2-1.8c0.5,0,1,0.1,1.5,0.3c0.5,0.2,1.1,0.5,1.1,1.1c0,1-1,1.7-1.8,2.2
		c-0.6,0.3-1.3,0.6-2,0.9c-0.9,0.3-1.8,0.6-2.8,0.8c-0.3,0.1-0.6,0.2-0.9,0.2c-0.1,0-0.3,0.1-0.4,0.1c-0.2,0-0.3-0.1-0.4-0.2
		c-0.1-0.1-0.1-0.3-0.1-0.5C203.8,52.3,203.8,52.3,203.8,52.2C203.8,52.2,203.8,52.2,203.8,52.2z"/>
</g>
</svg>
