<?xml version="1.0" encoding="utf-8"?>
<!-- Generator: Adobe Illustrator 28.0.0, SVG Export Plug-In . SVG Version: 6.00 Build 0)  -->
<svg version="1.1" id="OBJECTS" xmlns="http://www.w3.org/2000/svg" xmlns:xlink="http://www.w3.org/1999/xlink" x="0px" y="0px"
	 viewBox="0 0 170 139.5" style="enable-background:new 0 0 170 139.5;" xml:space="preserve">
<style type="text/css">
	.st0{fill:#F6F6F6;}
	.st1{fill:none;stroke:#000000;stroke-miterlimit:10;}
	.st2{fill:none;stroke:#000000;stroke-width:1.0024;stroke-miterlimit:10;}
	.st3{fill:#FFFFFF;}
	.st4{fill:none;stroke:#1C1C1C;stroke-linecap:round;stroke-miterlimit:10;}
	.st5{fill:none;stroke:#1C1C1C;stroke-miterlimit:10;}
</style>
<g>
	<path class="st0" d="M21.8,57c4-25,39-47,66-34s37,53,61,71s21,34,21,34h-170c0,0,4-23,13-47S21.8,57,21.8,57z"/>
	<line class="st1" x1="21" y1="127.5" x2="159" y2="127.5"/>
	<path class="st2" d="M54.6,53.3C52.1,23.5,64.2,20.9,74.3,24c10.1,3,11.6,31.3,11.6,31.3"/>
	<path class="st2" d="M114.2,57.3c0,0,8.6-24.3-3.5-27.8C98.5,26,90.5,40.7,90,55.3"/>
	<g>
		<path class="st3" d="M38.2,49.5c-0.7,12-2.7,39-2.7,39l-3.4,39.4l75.8,11.1l29.3-12.6l-10.1-73.3l-8.6-0.6L103.4,52L38.2,49.5z"/>
		<path d="M107.9,139.5C107.9,139.5,107.9,139.5,107.9,139.5L32,128.4c-0.3,0-0.4-0.3-0.4-0.5L35,88.5c0-0.3,2-27.1,2.7-39
			c0-0.3,0.2-0.5,0.5-0.5l65.2,2.5l15.1,0.5l8.7,0.6c0.2,0,0.4,0.2,0.5,0.4l10.1,73.3c0,0.2-0.1,0.4-0.3,0.5l-29.3,12.6
			C108.1,139.5,108,139.5,107.9,139.5z M32.6,127.4l75.2,11l28.8-12.4l-10-72.5l-8.2-0.5l-15.1-0.5L38.6,50C38,62.1,36,88.3,36,88.5
			L32.6,127.4z"/>
	</g>
	<line class="st2" x1="103.6" y1="51.8" x2="108.2" y2="138.7"/>
	<path class="st4" d="M53.5,90.5c0,0,20,3,28,7"/>
	<circle class="st5" cx="41" cy="14" r="3.5"/>
	<circle class="st5" cx="155" cy="87" r="3.5"/>
	<circle class="st0" cx="142" cy="50" r="2"/>
	<circle class="st3" cx="94.5" cy="3.5" r="3.5"/>
	<circle class="st0" cx="5.5" cy="78.5" r="2.5"/>
</g>
</svg>
