<?xml version="1.0" encoding="utf-8"?>
<!-- Generator: Adobe Illustrator 28.0.0, SVG Export Plug-In . SVG Version: 6.00 Build 0)  -->
<svg version="1.1" id="Layer_1" xmlns="http://www.w3.org/2000/svg" xmlns:xlink="http://www.w3.org/1999/xlink" x="0px" y="0px"
	 viewBox="0 0 150 55.6" style="enable-background:new 0 0 150 55.6;" xml:space="preserve">
<style type="text/css">
	.st0{fill:#C7D6EE;}
	.st1{fill:url(#SVGID_1_);}
	.st2{fill:#E9CF98;}
	.st3{fill:#FFFFFF;}
	.st4{fill:url(#SVGID_00000054979900330135649040000009840555263236455056_);}
	.st5{fill:url(#SVGID_00000058569806899408348420000015234326988242222469_);}
	.st6{fill:url(#SVGID_00000047776822403309388510000013158610493534825899_);}
	.st7{fill:url(#SVGID_00000051371159298887879220000001280894335650582447_);}
	.st8{fill:url(#SVGID_00000120524864839587896550000012718119312560245412_);}
	.st9{fill:url(#SVGID_00000128447515896805293340000001786111953363434926_);}
	.st10{fill:url(#SVGID_00000045613360789385352630000015884152405539120786_);}
	.st11{fill:url(#SVGID_00000167364489698924838790000018143266719874483125_);}
	.st12{fill:url(#SVGID_00000168803808450378327940000015241473670526833314_);}
	.st13{fill:url(#SVGID_00000075129073482418130730000013882668297522945712_);}
	.st14{fill:url(#SVGID_00000114047329545258690220000003710073854675247029_);}
	.st15{fill:url(#SVGID_00000145774639857365248090000016718156541417621901_);}
	.st16{fill:url(#SVGID_00000007421982345253834600000009126976442444798907_);}
	.st17{fill:url(#SVGID_00000049199881796213751130000002818529325188466352_);}
	.st18{fill:url(#SVGID_00000166653932139306984450000006630502515605025705_);}
	.st19{fill:url(#SVGID_00000152237021990135037620000017934627013048128154_);}
	.st20{fill:url(#SVGID_00000128443225301527189810000012424216268182722216_);}
	.st21{fill:url(#SVGID_00000039122952985280488130000012876309567314720693_);}
	.st22{fill:url(#SVGID_00000074418460927488036390000015400717408614504582_);}
	.st23{fill:url(#SVGID_00000096758798257816541480000015202109490539367300_);}
	.st24{fill:url(#SVGID_00000042694159941479303290000015809582040610244240_);}
	.st25{fill:url(#SVGID_00000094583526008399702410000005794986453370782599_);}
	.st26{fill:url(#SVGID_00000164513050497295039780000002665707452332463036_);}
	.st27{fill:url(#SVGID_00000119120026235534054730000011207418100728423578_);}
	.st28{fill:url(#SVGID_00000168820360978561016100000015438855521942235024_);}
	.st29{fill:url(#SVGID_00000059269601862697812500000015277327180714760608_);}
	.st30{fill:url(#SVGID_00000096739242576690555540000015769853804051466921_);}
	.st31{fill:url(#SVGID_00000169544712370372133620000012624005360982993587_);}
	.st32{fill:url(#SVGID_00000019655948424367026270000014641903827958499467_);}
	.st33{fill:url(#SVGID_00000178163738610349001870000017383098259826418363_);}
	.st34{fill:url(#SVGID_00000183206739883493496790000016711784841782111377_);}
	.st35{fill:url(#SVGID_00000039116764739422062940000006836193852990527670_);}
	.st36{fill:url(#SVGID_00000042704521849498415700000006459950541732952480_);}
	.st37{fill:url(#SVGID_00000177471845792141918630000010349180591123312513_);}
</style>
<g>
	<g transform="matrix(1.32585 0 0 -1.30221 -194.163 651.935)">
		<g>
			<g>
				<path class="st0" d="M157.1,489.9c0.5,1.2,1,2.1,4.2,2.1h18.6c1,0,2,0.5,2,2v5.2c0,0.6,0.6,1.4,2.1,1.4h38.5c1.1,0,2-0.6,2-2
					v-4.1c0-1.1,0.5-2.3,2.1-2.3h30.9c1.1,0,2.6-0.3,1.9-1.7c-0.7-1.4-10.7-21.7-11.4-23.1c-0.3-0.5-0.5-1.2-2.5-1.2h-19
					c-0.9,0-2.4,0-2.4-1.7v-4.8c0-0.7-0.5-1.7-2.2-1.7h-38.1c-1.2,0-2.1,0.6-2.1,1.8v4.3c0,0.9-0.5,2.3-1.9,2.3h-32
					c-1,0-2,0.8-1.4,2.3C147.3,470.1,157.1,489.9,157.1,489.9"/>
			</g>
		</g>
	</g>
	<g transform="matrix(1.32585 0 0 -1.30221 -194.163 651.935)">
		
			<linearGradient id="SVGID_1_" gradientUnits="userSpaceOnUse" x1="-1137.2412" y1="316.8662" x2="-1137.0747" y2="316.8662" gradientTransform="matrix(-90.9818 -181.0239 -187.8949 0.5075 -43772.5664 -205540.7188)">
			<stop  offset="0" style="stop-color:#C7D6EE"/>
			<stop  offset="0.185" style="stop-color:#91AFC8"/>
			<stop  offset="1" style="stop-color:#002334"/>
		</linearGradient>
		<path class="st1" d="M149.1,470.9l0.9,0l8.7,17.4l-0.9,0L149.1,470.9L149.1,470.9z"/>
	</g>
	<g transform="matrix(1.32585 0 0 -1.30221 -194.163 651.935)">
		<g>
			<g>
				<path class="st2" d="M180.1,468.4h-29.9c-1,0-1.4,0.5-1,1.3c2.3,4.5,9.7,19.3,9.9,19.7c0.2,0.5,0.8,1,1.8,1h20.1
					c2.1,0,2.4,0.9,2.4,2.6v4.9c0,0.7,0.4,1.1,1.2,1.1h36.7c1,0,1.4-0.3,1.4-1v-3.6c0-1.4-0.3-3.7,2.9-3.7H256c1.4,0,1.7-0.9,1-2.4
					c-2.7-5.4-9.3-18.3-9.5-18.7c-0.3-0.6-1.1-1-2.4-1h-19.9c-1.6,0-3.3-1.1-3.3-2.7v-4.2c0-0.8-0.5-1.3-1.3-1.3H185
					c-1.1,0-1.5,0.6-1.5,1.5v3.8C183.5,466.9,182.6,468.4,180.1,468.4"/>
				<path class="st3" d="M219.9,469.4l4.2-4.4c0,0,0.3,1,1.4,1.2l-4.7,4.4C220.9,470.6,220.1,470.2,219.9,469.4 M180.2,466.3
					c0,0,1.7-0.1,1.7-2.3l3.9,5.7l-1.1,0.8L180.2,466.3L180.2,466.3z M221.5,488l4.4,4.3c0,0-0.6,0.1-1.2,1l-4.4-4.5L221.5,488z
					 M219.6,496.8l4.1,3.5c0,0,0.4-0.3,0.6-0.7l-4.3-3.9L219.6,496.8L219.6,496.8z M181.9,499c0,0.7,0.7,1.6,1.8,1.6l3.1-3.8
					c0,0-0.9,0-1.1-0.3c-0.1-0.3-0.3-1.1-0.3-1.1L181.9,499L181.9,499z M180.6,492.1c0,0,1.3,0.2,1.3,1.6l3.1-3.6l-2-1.4
					L180.6,492.1z"/>
			</g>
		</g>
	</g>
	<g transform="matrix(1.32585 0 0 -1.30221 -194.163 651.935)">
		
			<linearGradient id="SVGID_00000150787470314117219680000015131283048812343174_" gradientUnits="userSpaceOnUse" x1="660.4216" y1="1357.0148" x2="660.5882" y2="1357.0148" gradientTransform="matrix(111.3745 111.3745 107.4384 -107.4384 -259055.9531 32821.8125)">
			<stop  offset="0" style="stop-color:#E1E8F5"/>
			<stop  offset="0.899" style="stop-color:#92A5C1"/>
			<stop  offset="0.955" style="stop-color:#476886"/>
			<stop  offset="1" style="stop-color:#E1E8F5"/>
		</linearGradient>
		<path style="fill:url(#SVGID_00000150787470314117219680000015131283048812343174_);" d="M203.3,500.6l-0.1-1.6h17.7
			c0.6,0,0.9-0.1,1.1-0.6l2,1.7c0,0-0.5,0.5-1.4,0.5H203.3z"/>
	</g>
	<g transform="matrix(1.32585 0 0 -1.30221 -194.163 651.935)">
		
			<linearGradient id="SVGID_00000045609821538431090570000000051231213458762912_" gradientUnits="userSpaceOnUse" x1="-1135.8885" y1="316.4527" x2="-1135.722" y2="316.4527" gradientTransform="matrix(113.9355 113.9352 109.9091 -109.9088 94824.7734 164693.1094)">
			<stop  offset="0" style="stop-color:#E1E8F5"/>
			<stop  offset="3.900000e-02" style="stop-color:#476886"/>
			<stop  offset="9.000000e-02" style="stop-color:#92A5C1"/>
			<stop  offset="1" style="stop-color:#E1E8F5"/>
		</linearGradient>
		<path style="fill:url(#SVGID_00000045609821538431090570000000051231213458762912_);" d="M183.7,500.6c-0.5,0-1-0.2-1.3-0.6
			l1.3-1.4c0,0,0.3,0.3,1.3,0.3h18.2l0.1,1.6H183.7z"/>
	</g>
	<g transform="matrix(1.32585 0 0 -1.30221 -194.163 651.935)">
		
			<linearGradient id="SVGID_00000090999074163170585380000008051620502775498941_" gradientUnits="userSpaceOnUse" x1="-1134.4034" y1="315.3884" x2="-1134.2369" y2="315.3884" gradientTransform="matrix(37.0972 34.5935 33.3709 -35.786 31739.2188 51023.4531)">
			<stop  offset="0" style="stop-color:#E1E8F5"/>
			<stop  offset="0.157" style="stop-color:#C7D6EE"/>
			<stop  offset="1" style="stop-color:#E1E8F5"/>
		</linearGradient>
		<path style="fill:url(#SVGID_00000090999074163170585380000008051620502775498941_);" d="M181.9,499v-5c0-0.8-0.2-1-0.2-1l1.4-1.5
			c0,0,0.2,0.5,0.2,0.8v5c0,0.3,0,0.8,0,0.8l-1.3,1.6C182.1,499.7,181.9,499.5,181.9,499"/>
	</g>
	<g transform="matrix(1.32585 0 0 -1.30221 -194.163 651.935)">
		
			<linearGradient id="SVGID_00000021120987367575859910000004343750075439872664_" gradientUnits="userSpaceOnUse" x1="-1131.8529" y1="318.0355" x2="-1131.6864" y2="318.0355" gradientTransform="matrix(-39.2792 36.6285 -35.334 -37.8911 -32995.1562 54002.707)">
			<stop  offset="0" style="stop-color:#E1E8F5"/>
			<stop  offset="0.157" style="stop-color:#C7D6EE"/>
			<stop  offset="1" style="stop-color:#E1E8F5"/>
		</linearGradient>
		<path style="fill:url(#SVGID_00000021120987367575859910000004343750075439872664_);" d="M222.7,498.3c0,0,0-0.6,0-0.9
			s0-4.5,0-4.9c0-0.3,0.5-0.9,0.5-0.9l1.7,1.5c0,0-0.4,0.1-0.4,0.9v5c0,0.4-0.4,0.7-0.4,0.7L222.7,498.3L222.7,498.3z"/>
	</g>
	<g transform="matrix(1.32585 0 0 -1.30221 -194.163 651.935)">
		
			<linearGradient id="SVGID_00000093175201276059239870000015744646370219953815_" gradientUnits="userSpaceOnUse" x1="-1135.2919" y1="316.8082" x2="-1135.1254" y2="316.8082" gradientTransform="matrix(127.7863 127.7863 123.2706 -123.2703 106185.875 184612.8125)">
			<stop  offset="0" style="stop-color:#476886"/>
			<stop  offset="0.129" style="stop-color:#92A5C1"/>
			<stop  offset="0.129" style="stop-color:#92A5C1"/>
			<stop  offset="1" style="stop-color:#E1E8F5"/>
		</linearGradient>
		<path style="fill:url(#SVGID_00000093175201276059239870000015744646370219953815_);" d="M180,492c-0.5,0-18.6,0-19.5,0
			c-1.4,0-2.2-0.6-2.2-0.6l1.1-1.5c0,0,0.5,0.6,1.5,0.6h20.3c0.7,0,1.2,0.3,1.2,0.3l-1.3,1.6C181.1,492.3,180.5,492,180,492"/>
	</g>
	<g transform="matrix(1.32585 0 0 -1.30221 -194.163 651.935)">
		
			<linearGradient id="SVGID_00000054266846481253079240000007910238839430045573_" gradientUnits="userSpaceOnUse" x1="-1131.9984" y1="328.6969" x2="-1131.8317" y2="328.6969" gradientTransform="matrix(-14.9749 21.3864 20.6306 14.4457 -23583.6953 19928.918)">
			<stop  offset="0" style="stop-color:#002334"/>
			<stop  offset="0.107" style="stop-color:#FFFFFF"/>
			<stop  offset="0.107" style="stop-color:#FFFFFF"/>
			<stop  offset="0.185" style="stop-color:#91AFC8"/>
			<stop  offset="0.242" style="stop-color:#002334"/>
			<stop  offset="0.534" style="stop-color:#5E738F"/>
			<stop  offset="0.758" style="stop-color:#002334"/>
			<stop  offset="1" style="stop-color:#002334"/>
		</linearGradient>
		<path style="fill:url(#SVGID_00000054266846481253079240000007910238839430045573_);" d="M148.6,469.6l-2.1-1.5
			c0,0-0.2-0.6,0.1-1.1c0.3-0.5,0.8-0.5,0.8-0.5l2.7,1.9c0,0-1.5,0.1-0.9,1.2c0.6,1.1,0.6,1.6,0.6,1.6
			C149.8,471.2,149.1,471.1,148.6,469.6"/>
	</g>
	<g transform="matrix(1.32585 0 0 -1.30221 -194.163 651.935)">
		
			<linearGradient id="SVGID_00000098912614157999617140000018224085782533835659_" gradientUnits="userSpaceOnUse" x1="-1137.8651" y1="318.0226" x2="-1137.6986" y2="318.0226" gradientTransform="matrix(-115.3178 -58.6873 -56.6135 111.2424 -113052.4922 -101673.6406)">
			<stop  offset="0" style="stop-color:#91AFC8"/>
			<stop  offset="1" style="stop-color:#002334"/>
		</linearGradient>
		<path style="fill:url(#SVGID_00000098912614157999617140000018224085782533835659_);" d="M154.3,483.8c-1.7-3.4-7.2-14.4-7.4-14.8
			c-0.2-0.4-0.4-1.1-0.4-1.1l2.1,1.6l10.1,20C158.7,489.6,155.9,487.3,154.3,483.8"/>
	</g>
	<g transform="matrix(1.32585 0 0 -1.30221 -194.163 651.935)">
		
			<linearGradient id="SVGID_00000143575132015296651330000013542058794983380868_" gradientUnits="userSpaceOnUse" x1="-1131.3558" y1="319.9629" x2="-1131.1893" y2="319.9629" gradientTransform="matrix(-8.8407 50.1386 48.3669 8.5284 -25312.4629 54460.8164)">
			<stop  offset="0" style="stop-color:#A5B9CC"/>
			<stop  offset="1" style="stop-color:#002334"/>
		</linearGradient>
		<path style="fill:url(#SVGID_00000143575132015296651330000013542058794983380868_);" d="M150.2,468.4l-2.8-2
			c0,0,31.4-0.1,32.2-0.1c0.8,0,1.1-0.2,1.1-0.2l1.4,1.6c0,0-1.4,0.6-2.1,0.6H150.2L150.2,468.4z"/>
	</g>
	<g transform="matrix(1.32585 0 0 -1.30221 -194.163 651.935)">
		
			<linearGradient id="SVGID_00000047738887180714101080000001285429674330617535_" gradientUnits="userSpaceOnUse" x1="-1135.7246" y1="297.0233" x2="-1135.558" y2="297.0233" gradientTransform="matrix(14.6907 0 0 -14.1716 16866.5332 4672.2993)">
			<stop  offset="0" style="stop-color:#5E738F"/>
			<stop  offset="0.489" style="stop-color:#91AFC8"/>
			<stop  offset="0.489" style="stop-color:#91AFC8"/>
			<stop  offset="1" style="stop-color:#91AFC8"/>
		</linearGradient>
		<path style="fill:url(#SVGID_00000047738887180714101080000001285429674330617535_);" d="M181.6,465.3c0,0,0.3-0.6,0.3-1v-4.2
			c0-0.6,0.2-1.1,0.2-1.1l1.4,1.6v5c0,0.8-0.4,1.5-0.4,1.5L181.6,465.3L181.6,465.3z"/>
	</g>
	<g transform="matrix(1.32585 0 0 -1.30221 -194.163 651.935)">
		
			<linearGradient id="SVGID_00000178895335079651133160000007972865739744517505_" gradientUnits="userSpaceOnUse" x1="-1125.3363" y1="300.935" x2="-1125.1698" y2="300.935" gradientTransform="matrix(-18.1888 0 0 -17.5459 -20244.6875 5743.3247)">
			<stop  offset="0" style="stop-color:#5E738F"/>
			<stop  offset="0.32" style="stop-color:#91AFC8"/>
			<stop  offset="0.32" style="stop-color:#91AFC8"/>
			<stop  offset="1" style="stop-color:#91AFC8"/>
		</linearGradient>
		<path style="fill:url(#SVGID_00000178895335079651133160000007972865739744517505_);" d="M221.9,466.1v-5l2.2-1.9
			c0,0,0.1,0.5,0.1,1.1v4.2c0,0.5,0.1,0.8,0.1,0.8l-1.9,1.9C222.3,467.1,221.9,466.9,221.9,466.1"/>
	</g>
	<g transform="matrix(1.32585 0 0 -1.30221 -194.163 651.935)">
		
			<linearGradient id="SVGID_00000077284013769133840660000004017682896777610925_" gradientUnits="userSpaceOnUse" x1="-1134.2106" y1="314.2044" x2="-1134.0441" y2="314.2044" gradientTransform="matrix(49.7534 86.1755 83.1302 -47.9951 30521.8926 113276.3906)">
			<stop  offset="0" style="stop-color:#A5B9CC"/>
			<stop  offset="1" style="stop-color:#002334"/>
		</linearGradient>
		<path style="fill:url(#SVGID_00000077284013769133840660000004017682896777610925_);" d="M220.3,460.3h-17V458h18.8
			c0.6,0,1.4,0.4,1.5,0.5l-2.1,2C221.5,460.5,221.3,460.3,220.3,460.3"/>
	</g>
	<g transform="matrix(1.32585 0 0 -1.30221 -194.163 651.935)">
		
			<linearGradient id="SVGID_00000026152823750541927960000010623959030502407075_" gradientUnits="userSpaceOnUse" x1="-1139.0125" y1="315.9655" x2="-1138.8459" y2="315.9655" gradientTransform="matrix(50.1395 -86.8443 -83.7755 -48.3678 83770.7188 -83171.5)">
			<stop  offset="0" style="stop-color:#002334"/>
			<stop  offset="0.775" style="stop-color:#A5B9CC"/>
			<stop  offset="1" style="stop-color:#A5B9CC"/>
		</linearGradient>
		<path style="fill:url(#SVGID_00000026152823750541927960000010623959030502407075_);" d="M182.7,458.2c0,0,0.4-0.3,1.7-0.3
			c1.2,0,18.8,0,18.8,0v2.3H185c-0.3,0-0.5,0.1-0.5,0.1L182.7,458.2z"/>
	</g>
	<g transform="matrix(1.32585 0 0 -1.30221 -194.163 651.935)">
		
			<linearGradient id="SVGID_00000133520242289516947710000013291108493039374505_" gradientUnits="userSpaceOnUse" x1="-1136.5442" y1="316.8542" x2="-1136.3777" y2="316.8542" gradientTransform="matrix(223.9121 -387.8269 -374.1219 -215.9991 373200.2812 -371848.2812)">
			<stop  offset="0" style="stop-color:#FFEFCF"/>
			<stop  offset="0.461" style="stop-color:#FFE4A6"/>
			<stop  offset="1" style="stop-color:#BC956E"/>
		</linearGradient>
		<path style="fill:url(#SVGID_00000133520242289516947710000013291108493039374505_);" d="M187.6,496.8c-1,0-2-0.5-2-1.6v-5.4
			c0-1.1-0.7-1.5-1.4-1.5h-21.8c-0.9,0-1.6-0.4-2-1.1c-0.3-0.6-5.8-11.5-7.5-15.1c-0.4-0.8,0-1.2,0.9-1.2h30.5
			c1.3,0,1.5-1.2,1.5-2.4v-4.2c0-0.8,0.8-1.6,1.6-1.6h15.3v34.2H187.6L187.6,496.8z"/>
	</g>
	<g transform="matrix(1.32585 0 0 -1.30221 -194.163 651.935)">
		
			<linearGradient id="SVGID_00000145746982096892626290000005750288420566416014_" gradientUnits="userSpaceOnUse" x1="-1135.7761" y1="313.0664" x2="-1135.6096" y2="313.0664" gradientTransform="matrix(62.8061 70.009 67.535 -60.5864 50421.9297 98944.8438)">
			<stop  offset="0" style="stop-color:#5E738F"/>
			<stop  offset="0.607" style="stop-color:#91AFC8"/>
			<stop  offset="0.607" style="stop-color:#91AFC8"/>
			<stop  offset="1" style="stop-color:#C7DFF4"/>
		</linearGradient>
		<path style="fill:url(#SVGID_00000145746982096892626290000005750288420566416014_);" d="M223.3,467.9l1.8-1.8
			c0,0,0.4,0.2,2.5,0.2h18.7c0.4,0,0.9,0.2,0.9,0.2l-9.9,2c0,0-11.5,0-12,0c0,0,0,0-0.1,0C224.1,468.5,223.3,467.9,223.3,467.9"/>
	</g>
	<g transform="matrix(1.32585 0 0 -1.30221 -194.163 651.935)">
		
			<linearGradient id="SVGID_00000181071601342722973880000010111227793953096337_" gradientUnits="userSpaceOnUse" x1="-1137.7054" y1="318.2315" x2="-1137.5389" y2="318.2315" gradientTransform="matrix(83.3831 -144.4235 -139.3199 -80.4362 139438.5156 -138215.1875)">
			<stop  offset="0" style="stop-color:#E1E8F5"/>
			<stop  offset="0.815" style="stop-color:#7F97B4"/>
			<stop  offset="0.815" style="stop-color:#7F97B4"/>
			<stop  offset="0.904" style="stop-color:#476886"/>
			<stop  offset="1" style="stop-color:#002334"/>
		</linearGradient>
		<path style="fill:url(#SVGID_00000181071601342722973880000010111227793953096337_);" d="M224,491c0,0,0.9-0.3,1.6-0.3H255
			c0.9,0,1.4-0.1,1.4-0.1l2.4,1.4c0,0-0.8,0.2-1.5,0.2h-30.6c-0.8,0-1.1,0.2-1.1,0.2L224,491L224,491z"/>
	</g>
	<g transform="matrix(1.32585 0 0 -1.30221 -194.163 651.935)">
		
			<linearGradient id="SVGID_00000183928384260075360460000011889846724629136575_" gradientUnits="userSpaceOnUse" x1="-1136.0994" y1="315.5874" x2="-1135.933" y2="315.5874" gradientTransform="matrix(135.8872 235.3636 227.0463 -131.0849 82974.7578 309232.7812)">
			<stop  offset="0" style="stop-color:#8CA0B5"/>
			<stop  offset="0.14" style="stop-color:#E1E8F5"/>
			<stop  offset="0.14" style="stop-color:#E1E8F5"/>
			<stop  offset="0.815" style="stop-color:#7F97B4"/>
			<stop  offset="0.904" style="stop-color:#476886"/>
			<stop  offset="1" style="stop-color:#002334"/>
		</linearGradient>
		<path style="fill:url(#SVGID_00000183928384260075360460000011889846724629136575_);" d="M257.3,489.8c0,0,0.1-0.7-0.1-1.3
			c-0.3-0.5-9.2-18-9.6-18.8c-0.4-0.8-1.3-1.1-1.3-1.1l1-2c0,0,0.4,0.3,0.6,0.5c0.2,0.3,11.2,22.6,11.5,23.4c0.3,0.8,0,1.1,0,1.1
			L257.3,489.8L257.3,489.8z"/>
	</g>
	<g transform="matrix(1.32585 0 0 -1.30221 -194.163 651.935)">
		
			<linearGradient id="SVGID_00000173855340114645980810000016334819279233823659_" gradientUnits="userSpaceOnUse" x1="-1138.5183" y1="310.1512" x2="-1138.3518" y2="310.1512" gradientTransform="matrix(48.1299 27.7878 26.8059 -46.429 46724.7305 46504.1758)">
			<stop  offset="0" style="stop-color:#002334"/>
			<stop  offset="0.815" style="stop-color:#A5B9CC"/>
			<stop  offset="0.815" style="stop-color:#A5B9CC"/>
			<stop  offset="0.888" style="stop-color:#002334"/>
			<stop  offset="1" style="stop-color:#002334"/>
		</linearGradient>
		<path style="fill:url(#SVGID_00000173855340114645980810000016334819279233823659_);" d="M245.4,468.5c-1.2,0-7.8-0.1-7.8-0.1
			l9.4-1.9c0,0,0.6,0.2,0.9,0.7c0.3,0.5,0,0.6-0.3,0.3c-0.3-0.3-0.9,0.2-0.6,0.5c0.3,0.3,0.6,1.4,0.6,1.4
			C247.5,469.6,246.5,468.5,245.4,468.5"/>
	</g>
	<g transform="matrix(1.32585 0 0 -1.30221 -194.163 651.935)">
		
			<linearGradient id="SVGID_00000172434010190687940440000016870802985260490646_" gradientUnits="userSpaceOnUse" x1="-1136.6528" y1="316.0207" x2="-1136.4863" y2="316.0207" gradientTransform="matrix(157.4217 -157.4214 -151.8586 -151.8583 227083.9688 -130465.8906)">
			<stop  offset="0" style="stop-color:#D4BC7B"/>
			<stop  offset="0.332" style="stop-color:#7F5F39"/>
			<stop  offset="1" style="stop-color:#D4BC7B"/>
		</linearGradient>
		<path style="fill:url(#SVGID_00000172434010190687940440000016870802985260490646_);" d="M158.3,470c-6.1-0.4-8.1-1.6-8.1-1.6
			h29.3c3.3,0,2.9-0.5,2.9-0.5l2.4,2.5c0,0-5.8,0-9.5,0.1c-0.5,0-1,0-1.6,0C169.8,470.6,163.6,470.4,158.3,470 M182.4,468L182.4,468
			L182.4,468z"/>
	</g>
	<g transform="matrix(1.32585 0 0 -1.30221 -194.163 651.935)">
		
			<linearGradient id="SVGID_00000094576131841694381670000002083926639350441146_" gradientUnits="userSpaceOnUse" x1="-1136.1296" y1="314.8168" x2="-1135.9631" y2="314.8168" gradientTransform="matrix(-112.4434 -112.4431 108.4698 -108.4695 -161659.625 -93126.8672)">
			<stop  offset="0" style="stop-color:#D4BC7B"/>
			<stop  offset="0.332" style="stop-color:#7F5F39"/>
			<stop  offset="1" style="stop-color:#D4BC7B"/>
		</linearGradient>
		<path style="fill:url(#SVGID_00000094576131841694381670000002083926639350441146_);" d="M227.3,470.5c-2.6-0.1-6.7-0.1-6.7-0.1
			l2.7-2.6c0,0,0.3,0.6,2.7,0.6c2.4,0,19.8,0.1,19.8,0.1s0.3,1-4.8,1.3c-4,0.3-10.1,0.7-13.1,0.7
			C227.8,470.6,227.5,470.5,227.3,470.5"/>
	</g>
	<g transform="matrix(1.32585 0 0 -1.30221 -194.163 651.935)">
		
			<linearGradient id="SVGID_00000115475277719654322640000007647189799250571711_" gradientUnits="userSpaceOnUse" x1="-1135.7743" y1="315.8997" x2="-1135.6078" y2="315.8997" gradientTransform="matrix(-181.7465 -181.7462 175.3239 -175.3235 -261560.0781 -150539.7344)">
			<stop  offset="0" style="stop-color:#D4BC7B"/>
			<stop  offset="0.332" style="stop-color:#7F5F39"/>
			<stop  offset="1" style="stop-color:#D4BC7B"/>
		</linearGradient>
		<path style="fill:url(#SVGID_00000115475277719654322640000007647189799250571711_);" d="M221.1,488c0,0,4.1,0,6.7-0.1
			c2.6-0.1,18.4,0.6,22.7,1.1c4.3,0.4,5.7,1.6,5.7,1.6s-27.6-0.1-30-0.1c-2.4,0-2.1,0.5-2.1,0.5L221.1,488z"/>
	</g>
	<g transform="matrix(1.32585 0 0 -1.30221 -194.163 651.935)">
		
			<linearGradient id="SVGID_00000024712015103432740680000005905099967170163097_" gradientUnits="userSpaceOnUse" x1="-1136.3468" y1="305.1896" x2="-1136.1803" y2="305.1896" gradientTransform="matrix(23.7398 0 0 -22.9008 27160.3418 7454.3823)">
			<stop  offset="0" style="stop-color:#D3BD8B"/>
			<stop  offset="1" style="stop-color:#7F5F39"/>
		</linearGradient>
		<path style="fill:url(#SVGID_00000024712015103432740680000005905099967170163097_);" d="M183.2,467c0,0,0.3-1,0.3-1.7V462
			c0-0.9,0.3-1.3,0.3-1.3l2.5,2.5c0,0-0.4,0.9-0.4,1.5v3.7c0,0.9-0.2,1.6-0.2,1.6L183.2,467L183.2,467z"/>
	</g>
	<g transform="matrix(1.32585 0 0 -1.30221 -194.163 651.935)">
		
			<linearGradient id="SVGID_00000023269179420580729600000003306200245087175058_" gradientUnits="userSpaceOnUse" x1="-1128.3014" y1="305.1991" x2="-1128.1349" y2="305.1991" gradientTransform="matrix(-23.7443 0 0 -22.9049 -26568.7383 7455.9038)">
			<stop  offset="0" style="stop-color:#D3BD8B"/>
			<stop  offset="1" style="stop-color:#7F5F39"/>
		</linearGradient>
		<path style="fill:url(#SVGID_00000023269179420580729600000003306200245087175058_);" d="M219.7,468.4c0-0.9-0.1-3.2-0.1-3.8
			c0-0.7-0.2-1.5-0.2-1.5l2.5-2.5c0,0,0.3,0.4,0.3,1.3v3.3c0,0.7,0.3,1.7,0.3,1.7l-2.7,3.1C219.7,469.5,219.7,469,219.7,468.4"/>
	</g>
	<g transform="matrix(1.32585 0 0 -1.30221 -194.163 651.935)">
		
			<linearGradient id="SVGID_00000150821379428389907040000007922401236780611512_" gradientUnits="userSpaceOnUse" x1="-1139.3184" y1="315.9092" x2="-1139.1519" y2="315.9092" gradientTransform="matrix(44.1245 -76.4259 -73.7252 -42.5651 73754.2969 -73162.3906)">
			<stop  offset="0" style="stop-color:#7F5F39"/>
			<stop  offset="0.646" style="stop-color:#D3BD8B"/>
			<stop  offset="0.888" style="stop-color:#FFE4A6"/>
			<stop  offset="1" style="stop-color:#FFE4A6"/>
		</linearGradient>
		<path style="fill:url(#SVGID_00000150821379428389907040000007922401236780611512_);" d="M184.6,460.4l18.1-0.1l0.1,0v2.4
			l-15.8,0.1L184.6,460.4L184.6,460.4z"/>
	</g>
	<g transform="matrix(1.32585 0 0 -1.30221 -194.163 651.935)">
		
			<linearGradient id="SVGID_00000010281616992185697530000012034231484685319838_" gradientUnits="userSpaceOnUse" x1="-1138.0776" y1="320.0103" x2="-1137.9111" y2="320.0103" gradientTransform="matrix(-48.2034 -83.4907 -80.5402 46.4999 -28871.7539 -109435.0156)">
			<stop  offset="0" style="stop-color:#7F5F39"/>
			<stop  offset="0.455" style="stop-color:#D3BD8B"/>
			<stop  offset="0.888" style="stop-color:#FFE4A6"/>
			<stop  offset="1" style="stop-color:#FFE4A6"/>
		</linearGradient>
		<path style="fill:url(#SVGID_00000010281616992185697530000012034231484685319838_);" d="M202.8,462.7L202.8,462.7l-0.1-2.4
			l18.7,0.2l-3,2.3L202.8,462.7L202.8,462.7z"/>
	</g>
	<g transform="matrix(1.32585 0 0 -1.30221 -194.163 651.935)">
		
			<linearGradient id="SVGID_00000149374444079050492970000011051170037157336760_" gradientUnits="userSpaceOnUse" x1="-1135.8379" y1="316.3156" x2="-1135.6714" y2="316.3156" gradientTransform="matrix(101.8951 101.8948 98.2942 -98.2939 84833.3359 147321.3281)">
			<stop  offset="0" style="stop-color:#D4BC7B"/>
			<stop  offset="3.900000e-02" style="stop-color:#7F5F39"/>
			<stop  offset="0.107" style="stop-color:#D1AC75"/>
			<stop  offset="1" style="stop-color:#D4BC7B"/>
		</linearGradient>
		<path style="fill:url(#SVGID_00000149374444079050492970000011051170037157336760_);" d="M184.8,499c-0.5,0-1-0.3-1-0.3l2.4-2.4
			c0,0,0.2,0.5,1.9,0.5h14.7v2.1H184.8L184.8,499z"/>
	</g>
	<g transform="matrix(1.32585 0 0 -1.30221 -194.163 651.935)">
		
			<linearGradient id="SVGID_00000078762248705333050830000011805137493394721462_" gradientUnits="userSpaceOnUse" x1="-1134.9182" y1="317.2824" x2="-1134.7517" y2="317.2824" gradientTransform="matrix(-103.6753 103.6749 -100.0115 -100.0112 -85714.2969 149887.6719)">
			<stop  offset="0" style="stop-color:#D4BC7B"/>
			<stop  offset="3.900000e-02" style="stop-color:#7F5F39"/>
			<stop  offset="0.107" style="stop-color:#D1AC75"/>
			<stop  offset="1" style="stop-color:#D4BC7B"/>
		</linearGradient>
		<path style="fill:url(#SVGID_00000078762248705333050830000011805137493394721462_);" d="M202.8,499v-2.1h14.7c1.7,0,2-0.7,2-0.7
			l2.4,2.4c0,0-0.6,0.5-1.1,0.5H202.8z"/>
	</g>
	<g transform="matrix(1.32585 0 0 -1.30221 -194.163 651.935)">
		
			<linearGradient id="SVGID_00000166643112462543877830000005430835763869125033_" gradientUnits="userSpaceOnUse" x1="-1134.4316" y1="315.1488" x2="-1134.2651" y2="315.1488" gradientTransform="matrix(37.8896 35.3324 34.0839 -36.5506 32424.3242 52092.9844)">
			<stop  offset="0" style="stop-color:#FFE292"/>
			<stop  offset="0.157" style="stop-color:#D1AC75"/>
			<stop  offset="1" style="stop-color:#FFE292"/>
		</linearGradient>
		<path style="fill:url(#SVGID_00000166643112462543877830000005430835763869125033_);" d="M183.4,496.9v-4.3c0-0.5-0.2-1.1-0.2-1.1
			l2.4-2.7c0,0,0.2,0.2,0.2,1.3c0,1.1,0.1,5.5,0.1,5.5l-2.4,2.6C183.4,498.3,183.4,497.6,183.4,496.9"/>
	</g>
	<g transform="matrix(1.32585 0 0 -1.30221 -194.163 651.935)">
		
			<linearGradient id="SVGID_00000011747064402228302370000014758952951254074262_" gradientUnits="userSpaceOnUse" x1="-1131.9133" y1="317.7447" x2="-1131.7468" y2="317.7447" gradientTransform="matrix(-39.4987 36.8329 -35.5315 -38.1028 -33195.8516 54290.5664)">
			<stop  offset="0" style="stop-color:#FFE292"/>
			<stop  offset="0.157" style="stop-color:#D1AC75"/>
			<stop  offset="1" style="stop-color:#FFE292"/>
		</linearGradient>
		<path style="fill:url(#SVGID_00000011747064402228302370000014758952951254074262_);" d="M219.7,495.6v-5.3c0-1.1,0.5-1.4,0.5-1.4
			l2.9,2.9c0,0-0.4,0.6-0.4,1.1c0,0.5,0,3.6,0,4.3c0,0.7,0,1.3,0,1.3L219.7,495.6L219.7,495.6z"/>
	</g>
	<g transform="matrix(1.32585 0 0 -1.30221 -194.163 651.935)">
		
			<linearGradient id="SVGID_00000064354664485512583400000007901013444913396869_" gradientUnits="userSpaceOnUse" x1="-1135.2161" y1="316.6997" x2="-1135.0497" y2="316.6997" gradientTransform="matrix(118.3645 118.3645 114.1816 -114.1813 98374.3438 171013.75)">
			<stop  offset="0" style="stop-color:#7F5F39"/>
			<stop  offset="1" style="stop-color:#BD9B6A"/>
		</linearGradient>
		<path style="fill:url(#SVGID_00000064354664485512583400000007901013444913396869_);" d="M181.4,490.4h-20.2
			c-0.6,0-1.5-0.2-1.8-0.5l1.8-1.9c0,0,0.5,0.4,1.8,0.4h21c0.6,0,1.2,0.2,1.2,0.2l-2.3,2.4C182.8,490.9,182.2,490.4,181.4,490.4"/>
	</g>
	<g transform="matrix(1.32585 0 0 -1.30221 -194.163 651.935)">
		
			<linearGradient id="SVGID_00000127026031924574135020000009702181860510720399_" gradientUnits="userSpaceOnUse" x1="-1141.4332" y1="318.3973" x2="-1141.2668" y2="318.3973" gradientTransform="matrix(50.359 -50.3587 -48.5792 -48.5792 73196.2344 -41532.3945)">
			<stop  offset="0" style="stop-color:#7F5F39"/>
			<stop  offset="1" style="stop-color:#D4BC7B"/>
		</linearGradient>
		<path style="fill:url(#SVGID_00000127026031924574135020000009702181860510720399_);" d="M244.3,470.8c0,0,1.1,0.4,1.5-0.9
			c0,0,0.3-0.4,1.1,0.7c0.8,1.1,8.1,16.2,8.1,16.5c-0.1,0.2-1.6,0.5-1.6,0.5L244.3,470.8z"/>
	</g>
	<g transform="matrix(1.32585 0 0 -1.30221 -194.163 651.935)">
		
			<linearGradient id="SVGID_00000030455917572385282520000016308503265991026319_" gradientUnits="userSpaceOnUse" x1="-1136.0164" y1="315.4365" x2="-1135.8497" y2="315.4365" gradientTransform="matrix(111.1204 214.0362 206.4727 -107.1935 61351.2578 277430.5312)">
			<stop  offset="0" style="stop-color:#A78A5E"/>
			<stop  offset="0.764" style="stop-color:#7F5F39"/>
			<stop  offset="0.916" style="stop-color:#674C2B"/>
			<stop  offset="1" style="stop-color:#674C2B"/>
		</linearGradient>
		<path style="fill:url(#SVGID_00000030455917572385282520000016308503265991026319_);" d="M253.5,487.4c0.4-0.2,0.7-0.5,0.2-1.6
			c-0.5-1.1-6.1-12.1-7.3-14.2c-1.2-2.1-0.1-3-0.1-3s0.9,0.4,1.2,0.9c0.3,0.5,8.9,17.6,9.5,18.7c0.6,1.1,0.2,1.6,0.2,1.6
			L253.5,487.4L253.5,487.4z"/>
	</g>
	<g transform="matrix(1.32585 0 0 -1.30221 -194.163 651.935)">
		
			<linearGradient id="SVGID_00000152983096456238155140000012716439899541545371_" gradientUnits="userSpaceOnUse" x1="-1135.5785" y1="317.0677" x2="-1135.412" y2="317.0677" gradientTransform="matrix(-315.8481 376.413 363.111 304.6861 -473564.25 331304.875)">
			<stop  offset="0" style="stop-color:#FFEFCF"/>
			<stop  offset="0.461" style="stop-color:#FFE4A6"/>
			<stop  offset="1" style="stop-color:#BC956E"/>
		</linearGradient>
		<path style="fill:url(#SVGID_00000152983096456238155140000012716439899541545371_);" d="M202.8,496.8v-34.2h15.1
			c0.9,0,1.6,0.3,1.6,1.3v5.1c0,1,0.7,1.8,1.4,1.8h22.8c0.8,0,1.5,0.5,1.9,1.2c1.9,3.4,7,13.4,7.4,14.2c0.5,1,0.2,1.6-0.9,1.6H222
			c-1.3,0-2.3,1-2.3,2.2v5.6c0,0.8-0.4,1.2-1.4,1.2L202.8,496.8L202.8,496.8L202.8,496.8z"/>
	</g>
	<g transform="matrix(1.32585 0 0 -1.30221 -194.163 651.935)">
		
			<linearGradient id="SVGID_00000119090929309579354840000003710060383123154071_" gradientUnits="userSpaceOnUse" x1="-1134.4355" y1="316.7924" x2="-1134.269" y2="316.7924" gradientTransform="matrix(109.1833 109.1833 105.3251 -105.3248 90643.9844 157698.5781)">
			<stop  offset="0" style="stop-color:#7F5F39"/>
			<stop  offset="1" style="stop-color:#E9CF98"/>
		</linearGradient>
		<path style="fill:url(#SVGID_00000119090929309579354840000003710060383123154071_);" d="M149.9,469.4l2.9,1.8
			c0,0-0.3,0.1,0.2,1.2c0.5,1.1,5.5,11.1,5.5,11.1l-1.1,0.2L149.9,469.4L149.9,469.4z"/>
	</g>
	<g transform="matrix(1.32585 0 0 -1.30221 -194.163 651.935)">
		
			<linearGradient id="SVGID_00000125563976752308114700000000760139626298301370_" gradientUnits="userSpaceOnUse" x1="-1134.9098" y1="316.9215" x2="-1134.7434" y2="316.9215" gradientTransform="matrix(147.0312 147.0309 141.8351 -141.8351 122063.4922 212289.0625)">
			<stop  offset="0" style="stop-color:#7F5F39"/>
			<stop  offset="1" style="stop-color:#E4CB90"/>
		</linearGradient>
		<path style="fill:url(#SVGID_00000125563976752308114700000000760139626298301370_);" d="M149.7,470.7c-0.7-1.3-0.6-1.8-0.6-1.8
			l1.8,1.2c0,0,7.8,15.1,8.6,16.9c0.8,1.8-0.4,2.5-0.4,2.5S150.4,472,149.7,470.7"/>
	</g>
	<path class="st3" d="M5.8,42c-0.2,0.1-1.6,0.3-1.8,0c-0.3-0.3-0.7-0.5-0.4-0.8c0.4-0.3,4.9-3,4.9-3s-0.6,0.3,4.1,0.3h37.5
		c1,0,1.9,0.7,2,1.1c0.1,0.4-0.1,0.6-0.4,0.5c-0.3-0.1-1.1-0.3-1.3-0.6c-0.2-0.3,0.2-0.5-2.5-0.5c-2.7,0-23.4,0.3-28.1,0.7
		C15.2,40.2,9,39.9,5.8,42 M144.3,13.2c0.2-0.1,1.6-0.3,1.9,0c0.3,0.3,0.7,0.5,0.4,0.8c-0.4,0.3-4.9,3-4.9,3s0.6-0.3-4.1-0.3H100
		c-1,0-1.9-0.7-2-1.1c-0.1-0.4,0.1-0.6,0.4-0.5c0.3,0.1,1.1,0.3,1.3,0.6c0.2,0.3-0.2,0.5,2.5,0.5c2.7,0,23.4-0.3,28.1-0.7
		C134.9,15,141.1,15.3,144.3,13.2 M17.9,16.7c0-0.4,0.2-1.2,0-1.5c-0.2-0.2,0.4-0.5,0.8-0.3c0.4,0.2,1.2,0.4,1.3,0.6
		c0.1,0.2,0,0.7-0.6,0.9c-0.5,0.2-1,0.6-1.8,2.4c-0.8,1.8-5.5,10.7-5.5,10.7s0.7-1.4,0.4-1.5c-0.3,0-1,1.1-1,1.1L17.9,16.7
		L17.9,16.7z M50.4,15.8c-0.4,0-0.5-0.4-0.2-0.4c0.3-0.1,0.8-0.1,1.2-1.6c0.4-1.5,0.1-6.2,0.1-7.1c-0.1-0.8-0.5-1.9,0.1-2.3
		c0.6-0.5,1,0.5,2.5,0.5c1.5,0,4.9-0.1,4.9-0.1s-4.7,0.3-5.5,0.4C52.5,5.4,51.8,6,52,7.1c0.1,1.1-0.2,6.9-0.4,7.5
		C51.3,15.2,50.9,15.8,50.4,15.8 M82.4,4.8c-0.6,0,12,0.1,12.8,0.1c0.8,0,1.7,0.2,1.9,1c0.2,0.8,0,3.4,0,3.4s0.4-3.3,1-3.9
		c0.6-0.6,0.4-1.5-0.3-1.3C97,4.3,91.1,4.4,82.4,4.8 M99.3,39.2c-0.4-0.1-0.9-0.1-1,0.2c-0.1,0.3,0.5,0.6-0.1,0.9
		c-0.6,0.3-1.1,0.5-1.1,0.3c0-0.3,0.3-1.7,1.5-1.7c1.2,0,30.7-0.1,31.2-0.1c0.5,0,1,0.1,1.3,0.5c0.2,0.4,0.5,1.6,0.7,1.9
		c0.2,0.3-0.1,0.3-0.6-0.3c-0.5-0.7-1.8-1-2.8-0.9C127.3,40.1,99.3,39.2,99.3,39.2 M131.9,40.2c0,0-0.3-0.6-0.5-1
		c-0.2-0.4-0.7-0.6-0.7-0.6s0.6-0.7,1.4-2.1c0.8-1.5,4.6-8.4,5-9.3c0,0-0.9,2.6,0.8,0.4c0,0-5.4,10-5.7,10.6
		C131.8,38.9,131.9,40.2,131.9,40.2 M52.6,48c0,0,0.1,0.8-0.4,1.1c-0.5,0.3-0.7,0.9-0.3,1.2c0.4,0.3,0.7,0.1,1-0.3
		c0.3-0.4,1.2-0.7,1.8-0.6C54.7,49.5,52.6,49.8,52.6,48 M82,49.5c0,0,11.5,0.6,12.2,0.6l1.2,0.1c0,0-1.2-0.2-0.9-0.6L82,49.5
		L82,49.5z M95.6,49.4c0,0-0.3,0.5,0.2,0.8c0.5,0.3,1.1,0.5,1.4,0.1c0.3-0.4-0.3-1.5-0.2-2.2C97,48.1,97.3,49.2,95.6,49.4"/>
</g>
</svg>
