<?xml version="1.0" encoding="utf-8"?>
<!-- Generator: Adobe Illustrator 28.0.0, SVG Export Plug-In . SVG Version: 6.00 Build 0)  -->
<svg version="1.1" id="Layer_1" xmlns="http://www.w3.org/2000/svg" xmlns:xlink="http://www.w3.org/1999/xlink" x="0px" y="0px"
	 viewBox="0 0 150 56.2" style="enable-background:new 0 0 150 56.2;" xml:space="preserve">
<style type="text/css">
	.st0{fill:#C9C9CA;}
	.st1{fill:url(#SVGID_1_);}
	.st2{fill:url(#SVGID_00000083790995454358685930000004969337956869371821_);}
	.st3{fill:url(#SVGID_00000101093941853086857710000004141357596644665226_);}
	.st4{fill:url(#SVGID_00000173869169487709092050000012951701891883401607_);}
	.st5{fill:url(#SVGID_00000128481322707629447910000006840904658167331495_);}
	.st6{fill:url(#SVGID_00000041269281514439426340000016716886473980494013_);}
	.st7{fill:url(#SVGID_00000064342938329584737100000012900762447741662080_);}
	.st8{fill:url(#SVGID_00000089533319324585716630000007351563176583155588_);}
	.st9{fill:url(#SVGID_00000097494952623991097560000004376086132049922178_);}
	.st10{fill:url(#SVGID_00000011721565296745158260000009797802224707570321_);}
	.st11{fill:url(#SVGID_00000160153285591258919900000009075846409072907450_);}
	.st12{fill:url(#SVGID_00000003818926129248151460000004418447630138272430_);}
	.st13{fill:url(#SVGID_00000124883654640534340040000003395667625998908599_);}
	.st14{fill:url(#SVGID_00000155827124885706804790000004412666649774326431_);}
	.st15{fill:url(#SVGID_00000134211395800032033840000009099721006957709722_);}
	.st16{fill:url(#SVGID_00000049215586495537458580000017283850163868022161_);}
	.st17{fill:url(#SVGID_00000101820891298730401950000003586369382194083489_);}
	.st18{fill:url(#SVGID_00000066504696321900293580000003087792850432130474_);}
	.st19{fill:url(#SVGID_00000104704498033013261350000005693885558569164432_);}
	.st20{fill:url(#SVGID_00000119838247609406805780000006398391064113567364_);}
	.st21{fill:url(#SVGID_00000060735605887254576260000012124078382648917950_);}
	.st22{fill:url(#SVGID_00000114033901866370576840000016553771123639984275_);}
	.st23{fill:url(#SVGID_00000098194232787038352270000012192432325244790449_);}
	.st24{fill:#4B4B4B;}
	.st25{fill:url(#SVGID_00000057136359648301186610000015699990967870030259_);}
	.st26{fill:url(#SVGID_00000019642072203964620600000001057415674174692249_);}
	.st27{fill:#FFFFFF;}
</style>
<g>
	<path class="st0" d="M75,0C33.4,0,0,12.5,0,28.1c0,15.6,33.6,28.1,75,28.1c41.4,0,75-12.6,75-28.1C150,12.6,116.4,0,75,0
		 M149.5,25.9c0,0.1,0,0.3,0.1,0.4C149.6,26.2,149.6,26.1,149.5,25.9"/>
	
		<radialGradient id="SVGID_1_" cx="-4908.1431" cy="-235.5116" r="37.4399" gradientTransform="matrix(8.6315 0 0 -4.3839 42439.0898 -939.6758)" gradientUnits="userSpaceOnUse">
		<stop  offset="0" style="stop-color:#00082E"/>
		<stop  offset="0.155" style="stop-color:#000A30"/>
		<stop  offset="0.242" style="stop-color:#010F39"/>
		<stop  offset="0.312" style="stop-color:#011946"/>
		<stop  offset="0.373" style="stop-color:#02275A"/>
		<stop  offset="0.414" style="stop-color:#03346C"/>
		<stop  offset="0.439" style="stop-color:#0B4F87"/>
		<stop  offset="0.48" style="stop-color:#1676AF"/>
		<stop  offset="0.513" style="stop-color:#1C8EC7"/>
		<stop  offset="0.533" style="stop-color:#1F97D0"/>
		<stop  offset="1" style="stop-color:#1F97D0"/>
	</radialGradient>
	<path class="st1" d="M75,1.1c-40.8,0-73.9,12.1-73.9,27c0,14.9,33.1,27,73.9,27c40.8,0,73.8-12.1,73.8-27
		C148.8,13.2,115.8,1.1,75,1.1"/>
	
		<linearGradient id="SVGID_00000143616587635829179850000008630588665133588108_" gradientUnits="userSpaceOnUse" x1="-5800.4009" y1="286.0676" x2="-5800.2051" y2="286.0676" gradientTransform="matrix(0 -291.4034 291.4034 0 -83286.2031 -1690199.875)">
		<stop  offset="0" style="stop-color:#00082E"/>
		<stop  offset="0.321" style="stop-color:#010A30"/>
		<stop  offset="0.501" style="stop-color:#030F39"/>
		<stop  offset="0.647" style="stop-color:#071846"/>
		<stop  offset="0.773" style="stop-color:#0D245A"/>
		<stop  offset="0.809" style="stop-color:#0F2961"/>
		<stop  offset="0.839" style="stop-color:#0B386E"/>
		<stop  offset="0.896" style="stop-color:#054E83"/>
		<stop  offset="0.951" style="stop-color:#015B90"/>
		<stop  offset="1" style="stop-color:#006094"/>
	</linearGradient>
	<path style="fill:url(#SVGID_00000143616587635829179850000008630588665133588108_);" d="M75.3,6.8c34.7,0,63.3,8.5,67.7,19.4v0
		c-2.9-11.5-32.3-20.6-68-20.6C37.3,5.6,6.7,15.7,6.7,28.1c0,1,0.2,2,0.6,3c-0.2-0.6-0.3-1.3-0.3-2C7.1,16.8,37.6,6.8,75.3,6.8
		L75.3,6.8z"/>
	
		<linearGradient id="SVGID_00000031893837240033674680000000775757786108772224_" gradientUnits="userSpaceOnUse" x1="-5800.4028" y1="1065.9443" x2="-5800.2065" y2="1065.9443" gradientTransform="matrix(1.784331e-14 -291.4034 -291.4034 -1.784331e-14 310695.6562 -1690200.375)">
		<stop  offset="0" style="stop-color:#00082E"/>
		<stop  offset="0.321" style="stop-color:#010A30"/>
		<stop  offset="0.501" style="stop-color:#030F39"/>
		<stop  offset="0.647" style="stop-color:#071846"/>
		<stop  offset="0.773" style="stop-color:#0D245A"/>
		<stop  offset="0.809" style="stop-color:#0F2961"/>
		<stop  offset="0.839" style="stop-color:#0B386E"/>
		<stop  offset="0.896" style="stop-color:#054E83"/>
		<stop  offset="0.951" style="stop-color:#015B90"/>
		<stop  offset="1" style="stop-color:#006094"/>
	</linearGradient>
	<path style="fill:url(#SVGID_00000031893837240033674680000000775757786108772224_);" d="M145.3,25.3c0.3,0.9,0.5,1.9,0.5,2.8
		c0,13.6-31.7,24.6-70.8,24.6c-34.8,0-63.7-8.7-69.6-20.2c4.5,12,34.1,21.2,69.9,21.2h0.4c39,0,70.6-11,70.6-24.4
		C146.3,28,145.9,26.6,145.3,25.3L145.3,25.3z"/>
	
		<linearGradient id="SVGID_00000105390683780602723860000002139824839453315204_" gradientUnits="userSpaceOnUse" x1="-5809.3203" y1="288.063" x2="-5809.124" y2="288.063" gradientTransform="matrix(0 -204.871 204.871 0 -58927.9414 -1190114)">
		<stop  offset="0" style="stop-color:#00082E"/>
		<stop  offset="0.321" style="stop-color:#010A30"/>
		<stop  offset="0.501" style="stop-color:#030F39"/>
		<stop  offset="0.647" style="stop-color:#071846"/>
		<stop  offset="0.773" style="stop-color:#0D245A"/>
		<stop  offset="0.809" style="stop-color:#0F2961"/>
		<stop  offset="0.839" style="stop-color:#0B386E"/>
		<stop  offset="0.896" style="stop-color:#054E83"/>
		<stop  offset="0.951" style="stop-color:#015B90"/>
		<stop  offset="1" style="stop-color:#006094"/>
	</linearGradient>
	<path style="fill:url(#SVGID_00000105390683780602723860000002139824839453315204_);" d="M88.6,31.9c-0.2-0.4-0.2-0.8-0.1-1.3
		c0-0.2-0.2-0.3-0.3-0.1c-1.6,1.7-1.7,3.8-0.7,4.7c0.4,0.3,0.8,0.5,1.3,0.5C88.1,34.9,87.8,33.2,88.6,31.9z"/>
	
		<linearGradient id="SVGID_00000040547102212378666790000009522889332374334908_" gradientUnits="userSpaceOnUse" x1="-5809.3872" y1="287.7403" x2="-5809.1924" y2="287.7403" gradientTransform="matrix(0 -204.404 204.404 0 -58710.5391 -1187415.125)">
		<stop  offset="0" style="stop-color:#00082E"/>
		<stop  offset="0.321" style="stop-color:#010A30"/>
		<stop  offset="0.501" style="stop-color:#030F39"/>
		<stop  offset="0.647" style="stop-color:#071846"/>
		<stop  offset="0.773" style="stop-color:#0D245A"/>
		<stop  offset="0.809" style="stop-color:#0F2961"/>
		<stop  offset="0.839" style="stop-color:#0B386E"/>
		<stop  offset="0.896" style="stop-color:#054E83"/>
		<stop  offset="0.951" style="stop-color:#015B90"/>
		<stop  offset="1" style="stop-color:#006094"/>
	</linearGradient>
	<path style="fill:url(#SVGID_00000040547102212378666790000009522889332374334908_);" d="M104.7,35.1L104.7,35.1
		c0.1-0.2,0.2-0.3,0.3-0.5c0.1-0.1,0-0.2,0-0.2c-0.2-0.1-0.3-0.2-0.4-0.3c0,0,0,0,0-0.1l0,0C104.5,34.3,104.6,34.7,104.7,35.1
		L104.7,35.1z"/>
	
		<linearGradient id="SVGID_00000017497971933200865720000016664808264845841837_" gradientUnits="userSpaceOnUse" x1="-5809.3872" y1="287.6911" x2="-5809.1934" y2="287.6911" gradientTransform="matrix(0 -204.4023 204.4023 0 -58697.5273 -1187405.125)">
		<stop  offset="0" style="stop-color:#00082E"/>
		<stop  offset="0.321" style="stop-color:#010A30"/>
		<stop  offset="0.501" style="stop-color:#030F39"/>
		<stop  offset="0.647" style="stop-color:#071846"/>
		<stop  offset="0.773" style="stop-color:#0D245A"/>
		<stop  offset="0.809" style="stop-color:#0F2961"/>
		<stop  offset="0.839" style="stop-color:#0B386E"/>
		<stop  offset="0.896" style="stop-color:#054E83"/>
		<stop  offset="0.951" style="stop-color:#015B90"/>
		<stop  offset="1" style="stop-color:#006094"/>
	</linearGradient>
	<path style="fill:url(#SVGID_00000017497971933200865720000016664808264845841837_);" d="M106.5,28.6c0.5,0.5,0.9,1.1,0.9,1.7
		c0,0.3,0.2,0.3,0.4,0.1c0-0.1,0.1-0.1,0.2-0.2c0-0.1-0.1-0.1-0.1-0.2C107.4,29.5,106.9,29,106.5,28.6L106.5,28.6z"/>
	
		<linearGradient id="SVGID_00000088842568998993490960000011119884452108339589_" gradientUnits="userSpaceOnUse" x1="-5809.3687" y1="288.1293" x2="-5809.1724" y2="288.1293" gradientTransform="matrix(0 -204.5335 204.5335 0 -58847.0156 -1188163.25)">
		<stop  offset="0" style="stop-color:#00082E"/>
		<stop  offset="0.321" style="stop-color:#010A30"/>
		<stop  offset="0.501" style="stop-color:#030F39"/>
		<stop  offset="0.647" style="stop-color:#071846"/>
		<stop  offset="0.773" style="stop-color:#0D245A"/>
		<stop  offset="0.809" style="stop-color:#0F2961"/>
		<stop  offset="0.839" style="stop-color:#0B386E"/>
		<stop  offset="0.896" style="stop-color:#054E83"/>
		<stop  offset="0.951" style="stop-color:#015B90"/>
		<stop  offset="1" style="stop-color:#006094"/>
	</linearGradient>
	<path style="fill:url(#SVGID_00000088842568998993490960000011119884452108339589_);" d="M84.5,27.6c0.4,0.6,0.6,1.4,0.6,2.5
		c0,0.3,0.2,0.3,0.3,0.1c0.1-0.1,0.1-0.2,0.2-0.3v0C85.3,28.9,84.9,27.9,84.5,27.6L84.5,27.6z"/>
	
		<linearGradient id="SVGID_00000129920174739519781480000001480698494484515220_" gradientUnits="userSpaceOnUse" x1="-5809.3486" y1="287.8063" x2="-5809.1528" y2="287.8063" gradientTransform="matrix(0 -204.6733 204.6733 0 -58805.2891 -1188971.625)">
		<stop  offset="0" style="stop-color:#00082E"/>
		<stop  offset="0.321" style="stop-color:#010A30"/>
		<stop  offset="0.501" style="stop-color:#030F39"/>
		<stop  offset="0.647" style="stop-color:#071846"/>
		<stop  offset="0.773" style="stop-color:#0D245A"/>
		<stop  offset="0.809" style="stop-color:#0F2961"/>
		<stop  offset="0.839" style="stop-color:#0B386E"/>
		<stop  offset="0.896" style="stop-color:#054E83"/>
		<stop  offset="0.951" style="stop-color:#015B90"/>
		<stop  offset="1" style="stop-color:#006094"/>
	</linearGradient>
	<path style="fill:url(#SVGID_00000129920174739519781480000001480698494484515220_);" d="M104.2,30.4c-1.3-0.6-3.3,0.5-5.1,2.7
		c-1.5,1.8-2.3,3.7-2.3,5.5c0,0.6,0.2,1.4,0.8,1.7c0.2,0.1,0.4,0.2,0.6,0.2c-0.1-0.2-0.1-0.5-0.1-0.7c0-1.9,0.6-3.7,2-5.5
		c1.8-2.2,3.7-3.3,5-2.7C105.1,31.1,104.8,30.6,104.2,30.4L104.2,30.4z"/>
	
		<linearGradient id="SVGID_00000083081600183588523470000014404402398872639888_" gradientUnits="userSpaceOnUse" x1="-5809.416" y1="288.5183" x2="-5809.2202" y2="288.5183" gradientTransform="matrix(0 -204.2081 204.2081 0 -58851.4648 -1186282.75)">
		<stop  offset="0" style="stop-color:#00082E"/>
		<stop  offset="0.321" style="stop-color:#010A30"/>
		<stop  offset="0.501" style="stop-color:#030F39"/>
		<stop  offset="0.647" style="stop-color:#071846"/>
		<stop  offset="0.773" style="stop-color:#0D245A"/>
		<stop  offset="0.809" style="stop-color:#0F2961"/>
		<stop  offset="0.839" style="stop-color:#0B386E"/>
		<stop  offset="0.896" style="stop-color:#054E83"/>
		<stop  offset="0.951" style="stop-color:#015B90"/>
		<stop  offset="1" style="stop-color:#006094"/>
	</linearGradient>
	<path style="fill:url(#SVGID_00000083081600183588523470000014404402398872639888_);" d="M65.2,34.1c1.4-1.9,2.9-2.6,4.7-3.3
		c0.2-0.1,0.3-0.2,0.2-0.4c-0.1-0.4-0.3-1.2-0.4-1.4c0.1,0.2,0,0.3-0.2,0.4c-2,0.8-4,1.9-5.4,3.8c-1.6,2.1-2,4.7-0.9,6.1
		c0.3,0.3,0.6,0.6,0.9,0.8C63.4,38.2,63.8,35.9,65.2,34.1L65.2,34.1z"/>
	
		<linearGradient id="SVGID_00000060026256764359821330000005280461296465928601_" gradientUnits="userSpaceOnUse" x1="-5809.3813" y1="288.1615" x2="-5809.1851" y2="288.1615" gradientTransform="matrix(0 -204.4506 204.4506 0 -58831.168 -1187684.625)">
		<stop  offset="0" style="stop-color:#00082E"/>
		<stop  offset="0.321" style="stop-color:#010A30"/>
		<stop  offset="0.501" style="stop-color:#030F39"/>
		<stop  offset="0.647" style="stop-color:#071846"/>
		<stop  offset="0.773" style="stop-color:#0D245A"/>
		<stop  offset="0.809" style="stop-color:#0F2961"/>
		<stop  offset="0.839" style="stop-color:#0B386E"/>
		<stop  offset="0.896" style="stop-color:#054E83"/>
		<stop  offset="0.951" style="stop-color:#015B90"/>
		<stop  offset="1" style="stop-color:#006094"/>
	</linearGradient>
	<path style="fill:url(#SVGID_00000060026256764359821330000005280461296465928601_);" d="M75.3,45.1c1.4,0,3,0,4.2,0
		c0.2,0,0.3-0.1,0.4-0.2c1.7-2.6,3.5-5.5,5.2-8.2c0.4,1.3,0.6,2,1.3,2.6c0.7,0.6,1.4,0.8,2.4,0.8c0.9,0,1.8-0.3,2.8-0.8
		c0.3-0.1,0.7-0.3,1-0.5c0-0.5,0-1,0.1-1.5c0-0.1,0-0.4-0.3-0.2c-0.6,0.4-1.2,0.8-1.9,1c-1,0.4-1.4,0.5-2.3,0.5
		c-1.1,0-2.1-0.5-2.8-1.6c-0.4-0.6-0.6-1.5-0.6-2.2c0-0.1-0.1-0.2-0.2,0c-1.9,2.9-3.6,5.6-5.5,8.5c-0.1,0.1-0.2,0.2-0.4,0.2
		c-1.1,0-2.4,0-3.7,0c-0.1,0-0.2-0.1-0.3-0.2c0.1,0.4,0.3,1.2,0.3,1.4C75,45.1,75.1,45.1,75.3,45.1L75.3,45.1z"/>
	
		<linearGradient id="SVGID_00000090252831391003115630000012647638471967298720_" gradientUnits="userSpaceOnUse" x1="-5809.1299" y1="287.679" x2="-5808.9341" y2="287.679" gradientTransform="matrix(0 -206.183 206.183 0 -59209.7148 -1197696.5)">
		<stop  offset="0" style="stop-color:#00082E"/>
		<stop  offset="0.321" style="stop-color:#010A30"/>
		<stop  offset="0.501" style="stop-color:#030F39"/>
		<stop  offset="0.647" style="stop-color:#071846"/>
		<stop  offset="0.773" style="stop-color:#0D245A"/>
		<stop  offset="0.809" style="stop-color:#0F2961"/>
		<stop  offset="0.839" style="stop-color:#0B386E"/>
		<stop  offset="0.896" style="stop-color:#054E83"/>
		<stop  offset="0.951" style="stop-color:#015B90"/>
		<stop  offset="1" style="stop-color:#006094"/>
	</linearGradient>
	<path style="fill:url(#SVGID_00000090252831391003115630000012647638471967298720_);" d="M93.4,43.6c0.3,0.6,1,1.3,1.4,1.5
		c2.4,1.2,5.9-0.2,8.1-2.3c0,0,0,0,0.1-0.1c0.1,0.4,0.2,0.9,0.2,0.9c0.2,0.5,0.4,1,0.6,1.2c1.5,1.7,4.8,0.9,8.1-1.7
		c1.9-1.5,3.3-2.9,5-4.9c0.1-0.1,0.1-0.2,0-0.4c-0.1-0.4-0.3-1.2-0.3-1.6c0,0.1,0,0.1-0.1,0.2c-1.8,2.2-3.8,4.2-5.7,5.7
		c-2.9,2.3-5.9,2.9-7.3,1.4c-0.5-0.5-0.8-1.3-0.9-2c0-0.4-0.2-0.4-0.4-0.2c-1.7,1.7-4.7,3.6-7.5,2.3c-1.4-0.7-2.2-2-2.4-3.5
		c0,0,0,0,0,0C92.7,41.2,92.9,42.6,93.4,43.6L93.4,43.6z"/>
	
		<linearGradient id="SVGID_00000007387207187501944270000012949777973832643994_" gradientUnits="userSpaceOnUse" x1="-5809.2031" y1="287.9676" x2="-5809.0068" y2="287.9676" gradientTransform="matrix(0 -205.6651 205.6651 0 -59133.6445 -1194702.875)">
		<stop  offset="0" style="stop-color:#00082E"/>
		<stop  offset="0.321" style="stop-color:#010A30"/>
		<stop  offset="0.501" style="stop-color:#030F39"/>
		<stop  offset="0.647" style="stop-color:#071846"/>
		<stop  offset="0.773" style="stop-color:#0D245A"/>
		<stop  offset="0.809" style="stop-color:#0F2961"/>
		<stop  offset="0.839" style="stop-color:#0B386E"/>
		<stop  offset="0.896" style="stop-color:#054E83"/>
		<stop  offset="0.951" style="stop-color:#015B90"/>
		<stop  offset="1" style="stop-color:#006094"/>
	</linearGradient>
	<path style="fill:url(#SVGID_00000007387207187501944270000012949777973832643994_);" d="M92.2,34.3c0.9-0.5,1.7-1.5,1.6-3.2
		c-0.1-0.8-0.3-1.7-0.7-2.4c0.3,0.5,0.4,1.1,0.3,1.7c-0.2,1.1-0.8,2-1.8,2.5c-0.8,0.4-1.8,0.3-2.5-0.3c-0.2-0.2-0.4-0.4-0.5-0.7
		c0.2,0.8,0.3,1.4,0.5,1.7C89.8,34.7,91,34.9,92.2,34.3z"/>
	
		<linearGradient id="SVGID_00000051357599934237115420000012049071607095096503_" gradientUnits="userSpaceOnUse" x1="-5809.4082" y1="287.5791" x2="-5809.2124" y2="287.5791" gradientTransform="matrix(0 -204.2608 204.2608 0 -58628.0547 -1186587)">
		<stop  offset="0" style="stop-color:#00082E"/>
		<stop  offset="0.321" style="stop-color:#010A30"/>
		<stop  offset="0.501" style="stop-color:#030F39"/>
		<stop  offset="0.647" style="stop-color:#071846"/>
		<stop  offset="0.773" style="stop-color:#0D245A"/>
		<stop  offset="0.809" style="stop-color:#0F2961"/>
		<stop  offset="0.839" style="stop-color:#0B386E"/>
		<stop  offset="0.896" style="stop-color:#054E83"/>
		<stop  offset="0.951" style="stop-color:#015B90"/>
		<stop  offset="1" style="stop-color:#006094"/>
	</linearGradient>
	<path style="fill:url(#SVGID_00000051357599934237115420000012049071607095096503_);" d="M119.1,20.1c-0.6,1-11.6,17.7-12.2,19.4
		c-0.2,0.5-0.2,1,0,1.3c0.2,0.3,0.6,0.4,0.9,0.4c0-0.2,0.1-0.4,0.2-0.7c0.7-1.7,11-17.4,11.5-18.4c0-0.1,0-0.2,0-0.2
		c0-0.2-0.4-1.8-0.4-2C119.1,20,119.1,20,119.1,20.1L119.1,20.1z"/>
	
		<linearGradient id="SVGID_00000172418116266988445100000001072296100953893806_" gradientUnits="userSpaceOnUse" x1="-5809.376" y1="288.3452" x2="-5809.1797" y2="288.3452" gradientTransform="matrix(0 -204.4895 204.4895 0 -58889.1758 -1187909)">
		<stop  offset="0" style="stop-color:#00082E"/>
		<stop  offset="0.321" style="stop-color:#010A30"/>
		<stop  offset="0.501" style="stop-color:#030F39"/>
		<stop  offset="0.647" style="stop-color:#071846"/>
		<stop  offset="0.773" style="stop-color:#0D245A"/>
		<stop  offset="0.809" style="stop-color:#0F2961"/>
		<stop  offset="0.839" style="stop-color:#0B386E"/>
		<stop  offset="0.896" style="stop-color:#054E83"/>
		<stop  offset="0.951" style="stop-color:#015B90"/>
		<stop  offset="1" style="stop-color:#006094"/>
	</linearGradient>
	<path style="fill:url(#SVGID_00000172418116266988445100000001072296100953893806_);" d="M73.5,27.8c0,0,0.1,0.1,0.1,0.1
		c0.7,1,1,2.4,1.1,3.8c0,0.3,0.2,0.3,0.3,0.2c0.1-0.1,0.3-0.3,0.4-0.4c-0.2-0.8-0.5-1.5-0.8-2.1C74.4,29.1,73.9,28.2,73.5,27.8
		L73.5,27.8z"/>
	
		<linearGradient id="SVGID_00000039823382095867818810000015441652086877454474_" gradientUnits="userSpaceOnUse" x1="-5809.3867" y1="288.4739" x2="-5809.1904" y2="288.4739" gradientTransform="matrix(0 -204.4135 204.4135 0 -58899.8594 -1187470)">
		<stop  offset="0" style="stop-color:#00082E"/>
		<stop  offset="0.321" style="stop-color:#010A30"/>
		<stop  offset="0.501" style="stop-color:#030F39"/>
		<stop  offset="0.647" style="stop-color:#071846"/>
		<stop  offset="0.773" style="stop-color:#0D245A"/>
		<stop  offset="0.809" style="stop-color:#0F2961"/>
		<stop  offset="0.839" style="stop-color:#0B386E"/>
		<stop  offset="0.896" style="stop-color:#054E83"/>
		<stop  offset="0.951" style="stop-color:#015B90"/>
		<stop  offset="1" style="stop-color:#006094"/>
	</linearGradient>
	<path style="fill:url(#SVGID_00000039823382095867818810000015441652086877454474_);" d="M55.7,43.5c0.2,0.1,0.4,0,0.5,0
		c0.7-0.3,2-1.3,2.5-2c0.2-0.2,0.3-0.1,0.4,0.1c0.2,0.7,0.6,1.3,1,1.9c0.4,0.7,1.3,1.4,2.4,1.7c1.4,0.4,2.9,0.5,4.9-0.3
		c1.6-0.6,3.3-1.9,4.6-3.3c1.6-1.7,2.1-2.8,2.7-3.5c1-1.2,2.6-3.5,4.8-5.3c0.8-0.7,1.6-1.1,2.1-0.9c0.3-0.8,0.2-1.3-0.2-1.5
		c-0.5-0.3-1.5,0.2-2.4,0.8c-2.4,1.8-4.4,4.6-5.4,5.8c-0.6,0.7-1.2,1.8-2.7,3.5c-2.4,2.7-5.7,4.2-8.8,3.1c-1.7-0.6-2.9-1.9-3.4-3.6
		c-0.1-0.3-0.3-0.4-0.5-0.2c-0.5,0.6-1.5,1.6-2.4,2.1c-0.1,0.1-0.3,0.2-0.5,0.1c-0.2-0.1-0.8-1-0.9-1.2c0,0,0-0.1,0-0.1v0
		c0.2,1.1,0.3,1.2,0.6,1.8C55.3,43,55.7,43.4,55.7,43.5z"/>
	
		<linearGradient id="SVGID_00000114072044760436395360000010762932554357022124_" gradientUnits="userSpaceOnUse" x1="-5809.4106" y1="289.0874" x2="-5809.2144" y2="289.0874" gradientTransform="matrix(0 -204.2444 204.2444 0 -59006.5586 -1186492.125)">
		<stop  offset="0" style="stop-color:#00082E"/>
		<stop  offset="0.321" style="stop-color:#010A30"/>
		<stop  offset="0.501" style="stop-color:#030F39"/>
		<stop  offset="0.647" style="stop-color:#071846"/>
		<stop  offset="0.773" style="stop-color:#0D245A"/>
		<stop  offset="0.809" style="stop-color:#0F2961"/>
		<stop  offset="0.839" style="stop-color:#0B386E"/>
		<stop  offset="0.896" style="stop-color:#054E83"/>
		<stop  offset="0.951" style="stop-color:#015B90"/>
		<stop  offset="1" style="stop-color:#006094"/>
	</linearGradient>
	<path style="fill:url(#SVGID_00000114072044760436395360000010762932554357022124_);" d="M36.9,33.5c0.8-1.6,1.9-2.3,3-3
		c0.5-0.3,0.7-0.6,0.4-1.4c-0.1-0.2-0.1-0.6-0.2-1c0,0.3-0.1,0.6-0.4,0.8c-1.3,0.7-2.9,1.8-3.7,3.4c-0.6,1.3-0.8,2.9,0.2,4.4
		c0.1,0.1,0.2,0.2,0.3,0.3h0C36.1,35.8,36.4,34.5,36.9,33.5L36.9,33.5z"/>
	
		<linearGradient id="SVGID_00000166645663978479211800000014348742113552663215_" gradientUnits="userSpaceOnUse" x1="-5809.1274" y1="288.6521" x2="-5808.9312" y2="288.6521" gradientTransform="matrix(0 -206.1787 206.1787 0 -59458.0703 -1197670.75)">
		<stop  offset="0" style="stop-color:#00082E"/>
		<stop  offset="0.321" style="stop-color:#010A30"/>
		<stop  offset="0.501" style="stop-color:#030F39"/>
		<stop  offset="0.647" style="stop-color:#071846"/>
		<stop  offset="0.773" style="stop-color:#0D245A"/>
		<stop  offset="0.809" style="stop-color:#0F2961"/>
		<stop  offset="0.839" style="stop-color:#0B386E"/>
		<stop  offset="0.896" style="stop-color:#054E83"/>
		<stop  offset="0.951" style="stop-color:#015B90"/>
		<stop  offset="1" style="stop-color:#006094"/>
	</linearGradient>
	<path style="fill:url(#SVGID_00000166645663978479211800000014348742113552663215_);" d="M50.5,14.2c4.8-1.6,10.2-0.6,14.6,0.3
		c0.6-0.4,1.1-0.6,1.7-0.9c0.3-0.1,0-0.3-0.1-0.3c-5.6-1.1-11.4-2.4-17-0.4c-3.9,1.4-5.5,4.5-4.7,6.5c0.2,0.4,0.4,0.7,0.7,0.9
		C45.4,18.5,46.8,15.4,50.5,14.2L50.5,14.2z"/>
	
		<linearGradient id="SVGID_00000181079538520047897550000015333799351903336622_" gradientUnits="userSpaceOnUse" x1="-5809.394" y1="288.8284" x2="-5809.1978" y2="288.8284" gradientTransform="matrix(0 -204.3566 204.3566 0 -58973.3555 -1187140.625)">
		<stop  offset="0" style="stop-color:#00082E"/>
		<stop  offset="0.321" style="stop-color:#010A30"/>
		<stop  offset="0.501" style="stop-color:#030F39"/>
		<stop  offset="0.647" style="stop-color:#071846"/>
		<stop  offset="0.773" style="stop-color:#0D245A"/>
		<stop  offset="0.809" style="stop-color:#0F2961"/>
		<stop  offset="0.839" style="stop-color:#0B386E"/>
		<stop  offset="0.896" style="stop-color:#054E83"/>
		<stop  offset="0.951" style="stop-color:#015B90"/>
		<stop  offset="1" style="stop-color:#006094"/>
	</linearGradient>
	<path style="fill:url(#SVGID_00000181079538520047897550000015333799351903336622_);" d="M34.8,43.5c1.6,1.1,3.2,1.5,5,1.5
		c3.7,0.1,7.1-1.5,10.7-5.1c3.4-3.5,6.4-8.4,9.4-13.2c0.1-0.2,0.2-0.2,0.7-0.3c1.8-0.2,3.5-0.3,5.1-0.5c0.5,0,0.9-0.1,1,0.1
		c0.6,0.6,1.3,1.1,1.7,1.4c0.3,0,0.6,0.1,0.7,0.2c0.2,0,0.4-0.1,0.5-0.2c0.2-0.2,0.2-0.4,0.2-0.7c-0.1-0.4-0.2-1.2-0.3-1.4
		c0.1,0.2,0,0.4-0.1,0.6c-0.1,0.1-0.3,0.3-0.6,0.3c-0.2,0-0.3-0.1-0.6-0.2c-0.5-0.3-1.2-0.8-1.7-1.4c-0.2-0.2-0.2-0.2-0.6-0.2
		c-1.7,0.1-4.5,0.4-6.3,0.6c-0.4,0.1-0.5,0.1-0.6,0.3c-2.9,4.8-6.1,10.1-9.5,13.6c-3.7,3.8-6.8,4.7-10,4.8c-3.8,0-7.1-2.1-8-5.8v0
		C31.9,39.8,33.2,42.4,34.8,43.5L34.8,43.5z"/>
	
		<linearGradient id="SVGID_00000083055095777205203230000003499244446607193531_" gradientUnits="userSpaceOnUse" x1="-5809.2803" y1="288.7783" x2="-5809.084" y2="288.7783" gradientTransform="matrix(0 -205.1317 205.1317 0 -59185.9961 -1191620)">
		<stop  offset="0" style="stop-color:#00082E"/>
		<stop  offset="0.321" style="stop-color:#010A30"/>
		<stop  offset="0.501" style="stop-color:#030F39"/>
		<stop  offset="0.647" style="stop-color:#071846"/>
		<stop  offset="0.773" style="stop-color:#0D245A"/>
		<stop  offset="0.809" style="stop-color:#0F2961"/>
		<stop  offset="0.839" style="stop-color:#0B386E"/>
		<stop  offset="0.896" style="stop-color:#054E83"/>
		<stop  offset="0.951" style="stop-color:#015B90"/>
		<stop  offset="1" style="stop-color:#006094"/>
	</linearGradient>
	<path style="fill:url(#SVGID_00000083055095777205203230000003499244446607193531_);" d="M48.7,27.2c-0.1-0.1-0.1-0.3-0.1-0.4
		c0,0.6,0.2,1.6,0.4,1.9c0.2,0.3,0.9,0.5,1.3,0.1c1.1-0.8,2.1-1.3,3.3-1.5c0.3-0.4,0.6-0.8,1-1.3c0,0,0-0.1,0-0.1
		c0,0-0.1-0.1-0.1-0.1c-1.7,0-3.1,0.5-4.5,1.6C49.5,27.6,48.9,27.6,48.7,27.2z"/>
	
		<linearGradient id="SVGID_00000142895833906434022060000003447715354362497717_" gradientUnits="userSpaceOnUse" x1="-5809.4106" y1="288.2665" x2="-5809.2139" y2="288.2665" gradientTransform="matrix(0 -204.2487 204.2487 0 -58799.2148 -1186517.125)">
		<stop  offset="0" style="stop-color:#00082E"/>
		<stop  offset="0.321" style="stop-color:#010A30"/>
		<stop  offset="0.501" style="stop-color:#030F39"/>
		<stop  offset="0.647" style="stop-color:#071846"/>
		<stop  offset="0.773" style="stop-color:#0D245A"/>
		<stop  offset="0.809" style="stop-color:#0F2961"/>
		<stop  offset="0.839" style="stop-color:#0B386E"/>
		<stop  offset="0.896" style="stop-color:#054E83"/>
		<stop  offset="0.951" style="stop-color:#015B90"/>
		<stop  offset="1" style="stop-color:#006094"/>
	</linearGradient>
	<path style="fill:url(#SVGID_00000142895833906434022060000003447715354362497717_);" d="M94,15.8c-2.3,1.3-4.8,1.7-7.3,1.7
		c-6.2,0.1-11.9-2.3-17.8-3.6c0,0.3,0.1,0.6-0.1,0.7c-3.3,2.4-6.3,4.9-8.2,8.3c-0.1,0.1,0,0.2,0.1,0.1c0.5,0,1,0,1.5-0.1
		c1.8-2.8,3.8-4.5,6.7-6.6c0.2-0.2,0.4-0.3,0.4-0.9c5.9,1.3,10.5,3.5,18.2,3.5c2.3,0,5.5-0.8,7.3-1.8c2-1.2,2.5-2.1,2.6-3
		c0-0.3-0.1-0.7-0.1-0.9c-0.1-0.3-0.1-0.7-0.2-1c0,0.1,0,0.3,0,0.4C96.9,13.7,96,14.7,94,15.8L94,15.8z"/>
	
		<linearGradient id="SVGID_00000036945375019311986690000014380005857101298337_" gradientUnits="userSpaceOnUse" x1="-5809.3423" y1="288.4566" x2="-5809.1465" y2="288.4566" gradientTransform="matrix(0 -204.7104 204.7104 0 -58981.6523 -1189185.875)">
		<stop  offset="0" style="stop-color:#00082E"/>
		<stop  offset="0.321" style="stop-color:#010A30"/>
		<stop  offset="0.501" style="stop-color:#030F39"/>
		<stop  offset="0.647" style="stop-color:#071846"/>
		<stop  offset="0.773" style="stop-color:#0D245A"/>
		<stop  offset="0.809" style="stop-color:#0F2961"/>
		<stop  offset="0.839" style="stop-color:#0B386E"/>
		<stop  offset="0.896" style="stop-color:#054E83"/>
		<stop  offset="0.951" style="stop-color:#015B90"/>
		<stop  offset="1" style="stop-color:#006094"/>
	</linearGradient>
	<path style="fill:url(#SVGID_00000036945375019311986690000014380005857101298337_);" d="M68.3,19.8c-0.1,0.1-0.2,0.1-0.2,0.2
		c-0.6,0.6-0.8,1.4-0.7,2c0,0.2,0.1,0.3,0.3,0.3c0.1,0,0.2-0.1,0.3-0.1c0-0.3,0.2-0.7,0.5-1c0.2-0.2,0.6-0.3,0.8-0.3
		c0.2-0.4,0.3-1,0-1.2C69.1,19.6,68.6,19.6,68.3,19.8L68.3,19.8z"/>
	
		<linearGradient id="SVGID_00000024707886506595169560000000957854972010875314_" gradientUnits="userSpaceOnUse" x1="-5809.4062" y1="288.4486" x2="-5809.21" y2="288.4486" gradientTransform="matrix(0 -204.2728 204.2728 0 -58852.4922 -1186656.75)">
		<stop  offset="0" style="stop-color:#00082E"/>
		<stop  offset="0.321" style="stop-color:#010A30"/>
		<stop  offset="0.501" style="stop-color:#030F39"/>
		<stop  offset="0.647" style="stop-color:#071846"/>
		<stop  offset="0.773" style="stop-color:#0D245A"/>
		<stop  offset="0.809" style="stop-color:#0F2961"/>
		<stop  offset="0.839" style="stop-color:#0B386E"/>
		<stop  offset="0.896" style="stop-color:#054E83"/>
		<stop  offset="0.951" style="stop-color:#015B90"/>
		<stop  offset="1" style="stop-color:#006094"/>
	</linearGradient>
	<path style="fill:url(#SVGID_00000024707886506595169560000000957854972010875314_);" d="M70.7,21.9c-0.6,1.1-1.5,1.7-2.4,1.9
		c0,0-0.2,0-0.2,0.2c0,0.2,0.7,0.6,1.1,0.9c0.1,0,0.1,0,0.1,0c0.5-0.2,1.2-0.6,1.7-1.6c0.3-0.6,0.4-1.1,0.3-2.2
		c-0.1-0.7-0.2-1.4-0.4-1.8C71.2,20.1,71.1,21.1,70.7,21.9L70.7,21.9z"/>
	
		<linearGradient id="SVGID_00000007410753965142262960000011986736786030117044_" gradientUnits="userSpaceOnUse" x1="-5809.3994" y1="288.8879" x2="-5809.2031" y2="288.8879" gradientTransform="matrix(0 -204.3203 204.3203 0 -58977.8047 -1186931)">
		<stop  offset="0" style="stop-color:#00082E"/>
		<stop  offset="0.321" style="stop-color:#010A30"/>
		<stop  offset="0.501" style="stop-color:#030F39"/>
		<stop  offset="0.647" style="stop-color:#071846"/>
		<stop  offset="0.773" style="stop-color:#0D245A"/>
		<stop  offset="0.809" style="stop-color:#0F2961"/>
		<stop  offset="0.839" style="stop-color:#0B386E"/>
		<stop  offset="0.896" style="stop-color:#054E83"/>
		<stop  offset="0.951" style="stop-color:#015B90"/>
		<stop  offset="1" style="stop-color:#006094"/>
	</linearGradient>
	<path style="fill:url(#SVGID_00000007410753965142262960000011986736786030117044_);" d="M54.1,18.1c-1.6,3.8-4.7,6.9-8.5,7
		c-2.1,0.1-3.7-0.9-4.6-2.5c0.6,1.1,1.7,2.1,2.6,2.7c0.8,0.5,1.8,0.8,3,0.8c3.9-0.1,6.9-3.4,7.9-6.1c0.3-0.7,0.1-1.5-0.1-2.1
		c0-0.2-0.1-0.7-0.3-1h0C54.3,17.2,54.3,17.6,54.1,18.1L54.1,18.1z"/>
	<path class="st24" d="M75,0C33.4,0,0,12.5,0,28.1c0,15.6,33.6,28.1,75,28.1c41.4,0,75-12.6,75-28.1C150,12.6,116.4,0,75,0
		 M0.5,28.4c0-3.3,1.4-6.6,4.5-9.6C15.7,8,43.9,0.6,74.9,0.5c41.1-0.2,74.5,12.1,74.6,27.3c0,3.3-1.5,6.5-4.6,9.6
		c-10.7,10.8-38.8,18.2-69.8,18.3C34.1,55.9,0.6,43.7,0.5,28.4 M149.5,25.9c0,0.1,0,0.3,0.1,0.4C149.6,26.2,149.6,26.1,149.5,25.9"
		/>
	
		<linearGradient id="SVGID_00000081622357596761938050000008363718249658208396_" gradientUnits="userSpaceOnUse" x1="-5797.8433" y1="280.7954" x2="-5797.647" y2="280.7954" gradientTransform="matrix(-88.4134 -329.9634 329.9634 -88.4134 -605200.9375 -1888180.5)">
		<stop  offset="0" style="stop-color:#A5A5A6"/>
		<stop  offset="0.35" style="stop-color:#D7D7D7"/>
		<stop  offset="0.65" style="stop-color:#D7D7D7"/>
		<stop  offset="1" style="stop-color:#A5A5A6"/>
	</linearGradient>
	<path style="fill:url(#SVGID_00000081622357596761938050000008363718249658208396_);" d="M0.2,28.1c0,0.7,0.1,1.5,0.2,2.2
		c-0.1-0.6-0.2-1.2-0.2-1.9c0-3.3,1.5-6.7,4.6-9.8c10.8-10.9,39-18.2,70-18.3c4.3,0,8.5,0.1,12.6,0.3C83.3,0.4,79.2,0.2,75,0.2
		C33.5,0.2,0.2,12.7,0.2,28.1z"/>
	
		<linearGradient id="SVGID_00000023260920312710814850000009252802691937139126_" gradientUnits="userSpaceOnUse" x1="-4904.7212" y1="131.3676" x2="-4906.7246" y2="138.8456" gradientTransform="matrix(8.6315 0 0 -8.6315 42439.0898 1167.8372)">
		<stop  offset="0" style="stop-color:#A5A5A6"/>
		<stop  offset="0.35" style="stop-color:#D7D7D7"/>
		<stop  offset="0.65" style="stop-color:#D7D7D7"/>
		<stop  offset="1" style="stop-color:#A5A5A6"/>
	</linearGradient>
	<path style="fill:url(#SVGID_00000023260920312710814850000009252802691937139126_);" d="M145.1,37.6c-10.8,10.8-38.9,18.3-70,18.4
		c-4.3,0-8.6-0.1-12.9-0.4C66.4,55.9,70.7,56,75,56c41.2,0,74.8-12.6,74.8-27.9c0-0.6-0.1-1.2-0.1-1.7c0.1,0.5,0.1,1,0.1,1.4
		C149.7,31.2,148.2,34.5,145.1,37.6"/>
	<path class="st27" d="M75,3.5c-39.1,0-70.8,11-70.8,24.6c0,13.6,31.7,24.6,70.8,24.6c39.1,0,70.8-11,70.8-24.6
		C145.8,14.5,114.1,3.5,75,3.5L75,3.5z M75,50.6c-37.7,0-68.3-10.1-68.3-22.5C6.7,15.7,37.3,5.6,75,5.6c37.7,0,68.3,10.1,68.3,22.5
		C143.3,40.5,112.7,50.6,75,50.6L75,50.6z"/>
	<path class="st27" d="M119.1,20.1c0.1-0.2,0-0.3-0.2-0.3c-1.1,0-2.6,0-3.8,0c-0.3,0-0.4,0-0.6,0.3c-0.4,0.8-5.7,8.8-6.7,10.3
		c-0.2,0.2-0.4,0.2-0.4-0.1c-0.1-0.9-0.9-2-2.1-2.5c-1-0.4-1.9-0.5-2.8-0.3c-1.7,0.2-3.3,1.2-4.7,2.2c-2.1,1.6-3.8,3.6-6.1,5.1
		c-1.2,0.8-3,1.5-4.1,0.5c-1-1-0.9-3.1,0.7-4.7c0.2-0.2,0.4,0,0.3,0.1c-0.2,0.7,0,1.5,0.6,2c0.7,0.6,1.7,0.7,2.5,0.3
		c1-0.5,1.6-1.5,1.8-2.5c0.3-1.7-1-3.2-2.7-3.3c-1.3-0.1-2.6,0.4-3.8,1.4c-0.6,0.5-1,0.9-1.5,1.7c-0.1,0.2-0.3,0.2-0.3-0.1
		c0.1-2.2-0.8-3.4-2.6-3.4c-1.4,0-2.9,0.7-4,1.6c-1.3,1-2.4,2.4-3.6,3.6c-0.1,0.2-0.3,0.1-0.3-0.2c0-1.4-0.4-2.8-1.1-3.8
		c-0.2-0.3-0.7-0.5-1.1-0.3c-0.2,0.1-0.9,0.4-1.3,0.8c-0.2,0.2-0.3,0.5-0.2,0.9c0.6,2.1,0.5,4.6-0.4,6.6c-0.8,1.9-2.3,3.6-4.2,4.1
		c-1.2,0.4-2.4,0.2-3.2-0.9c-1.1-1.5-0.6-4,0.9-6.1c1.4-1.9,3.4-3,5.4-3.8c0.2-0.1,0.3-0.2,0.2-0.4c-0.1-0.3-0.3-0.8-0.4-1
		c-0.2-0.5-0.7-0.6-1.3-0.5c-1.5,0.2-2.8,0.7-4.1,1.4c-3.4,1.8-5.1,5.3-5.9,7.2c-0.4,0.9-0.7,1.5-1.1,2c-0.5,0.7-1.2,1.3-2.4,2.4
		c-0.1,0.1-0.2,0.3-0.1,0.5c0.1,0.3,0.8,1.2,0.9,1.2c0.2,0.1,0.4,0,0.5-0.1c0.9-0.6,1.9-1.5,2.4-2.1c0.2-0.2,0.4-0.1,0.5,0.2
		c0.5,1.7,1.7,3.1,3.4,3.6c3.1,1.1,6.4-0.5,8.8-3.1c1.6-1.7,2.1-2.8,2.7-3.5c1-1.3,3-4,5.4-5.8c0.9-0.7,1.9-1.2,2.4-0.8
		c0.4,0.3,0.5,0.9-0.1,2.1c-2.4,4.4-6,9.6-6.6,10.9c-0.1,0.2,0,0.4,0.2,0.4c1.3,0,2.5,0,3.7,0c0.2,0,0.3-0.1,0.4-0.2
		c1.9-2.9,3.6-5.7,5.5-8.5c0.1-0.2,0.2,0,0.2,0c0,0.7,0.2,1.6,0.6,2.2c0.7,1.1,1.7,1.6,2.8,1.6c0.9,0,1.3-0.1,2.3-0.5
		c0.7-0.3,1.3-0.6,1.9-1c0.3-0.2,0.3,0.1,0.3,0.2c-0.4,2.3,0.1,5,2.4,6.2c2.7,1.4,5.8-0.5,7.5-2.3c0.2-0.2,0.4-0.1,0.4,0.2
		c0,0.7,0.3,1.4,0.9,2c1.5,1.5,4.4,0.9,7.3-1.4c1.9-1.5,3.9-3.5,5.7-5.7c0.1-0.1,0.1-0.2,0-0.4c-0.3-0.3-0.7-0.6-0.9-0.9
		c-0.1-0.1-0.3-0.1-0.4,0c-1.8,1.7-3.5,3.7-5.9,5.4c-0.8,0.6-2.1,1-2.7,0.2c-0.2-0.3-0.2-0.7,0-1.3C107.5,37.8,118.5,21,119.1,20.1
		 M104.5,34.1c0,0.1,0.2,0.3,0.4,0.3c0.1,0,0.1,0.1,0,0.2c-0.5,1-0.9,1.6-1.5,2.4c-0.5,0.8-1.1,1.4-1.9,2c-1.1,0.9-2.6,1.9-3.9,1.2
		c-0.6-0.3-0.8-1.1-0.8-1.7c0-1.8,0.8-3.6,2.3-5.5c1.8-2.2,3.8-3.4,5.1-2.7c1.4,0.6,0.9,2.2,0.3,3.4C104.5,33.9,104.5,34,104.5,34.1
		"/>
	<path class="st27" d="M39.4,43.6c-4.1,0-7.7-2.5-8.1-6.9c-0.2-2.4,0.5-4.6,1.8-6.4c1.2-1.6,3.3-2.9,5-3.2c0.6-0.1,1.3,0,1.7,0.3
		c0.5,0.6,0.4,1.2-0.1,1.5c-1.3,0.7-2.9,1.8-3.7,3.4c-0.6,1.3-0.8,2.9,0.2,4.4c1.6,2.5,6.2,2.6,10.5-1.4c1.1-1,2-1.9,3-3
		c1.9-2.1,2.5-2.9,5-6.4c0,0,0-0.1,0-0.1c0,0-0.1-0.1-0.1-0.1c-1.7,0-3.1,0.5-4.5,1.6c-0.4,0.3-1,0.3-1.2-0.1
		c-0.3-0.4-0.1-1,0.4-1.3c2.3-1.6,4.8-1.9,7.3-2.3c0,0,0.2,0,0.3-0.2c1-1.3,1.8-2.5,2.9-3.9c1.1-1.4,2.6-2.6,3.7-3.6
		c1.5-1.3,2.5-1.8,3.5-2.3c0.3-0.1,0-0.3-0.1-0.3c-5.6-1.1-11.4-2.4-17-0.4c-3.9,1.4-5.5,4.5-4.7,6.5c0.6,1.4,2.5,1.7,4.3,0.8
		c1.6-0.8,2.9-1.9,3.8-3.4c0.5-0.8,1.7-0.2,1.1,1.2c-1.6,3.8-4.7,6.9-8.5,7c-3.2,0.1-5.3-2.3-5.3-5.2c0-5.8,6.4-9.6,13.2-10.1
		c8.1-0.7,15.8,1.5,23.9,2.5c6.2,0.7,12.1,0.8,18.3-0.7c0.7-0.2,1.3,0.3,1.2,1.1c-0.1,1.1-0.9,2.1-2.9,3.2c-2.3,1.3-4.8,1.7-7.3,1.7
		c-6.2,0.1-11.9-2.3-17.8-3.6c0,0.3,0.1,0.6-0.1,0.7c-3.3,2.4-6.3,4.9-8.2,8.3c-0.1,0.1,0,0.2,0.1,0.1c1.7-0.1,3.3-0.1,4.9-0.3
		c0.3,0,0.3-0.1,0.3-0.3C65.6,21.3,65.9,20,67,19c1.1-1,2.4-1.1,3.3-0.4c1,0.8,0.9,2.2,0.4,3.3c-0.6,1.1-1.5,1.7-2.4,1.9
		c0,0-0.2,0-0.2,0.2c0,0.3,1.3,0.9,1.4,1.1c0.1,0.2,0.1,0.4-0.1,0.6c-0.1,0.1-0.3,0.3-0.6,0.3c-0.2,0-0.3-0.1-0.6-0.2
		c-0.5-0.3-1.2-0.8-1.7-1.4c-0.2-0.2-0.2-0.2-0.6-0.2c-1.7,0.1-4.5,0.4-6.3,0.6c-0.4,0.1-0.5,0.1-0.6,0.3
		c-2.9,4.8-6.1,10.1-9.5,13.6C45.7,42.6,42.6,43.6,39.4,43.6 M67.4,22.1c0,0.2,0.1,0.3,0.3,0.3c0.6-0.1,1.2-0.6,1.5-1.1
		c0.3-0.5,0.5-1.2,0.2-1.5c-0.3-0.3-0.8-0.2-1.1,0.1C67.5,20.5,67.3,21.4,67.4,22.1"/>
</g>
</svg>
