<?xml version="1.0" encoding="utf-8"?>
<!-- Generator: Adobe Illustrator 28.0.0, SVG Export Plug-In . SVG Version: 6.00 Build 0)  -->
<svg version="1.1" id="Layer_1" xmlns="http://www.w3.org/2000/svg" xmlns:xlink="http://www.w3.org/1999/xlink" x="0px" y="0px"
	 viewBox="0 0 150 75.9" style="enable-background:new 0 0 150 75.9;" xml:space="preserve">
<style type="text/css">
	.st0{fill:#1E4674;}
</style>
<path class="st0" d="M60.9,0.3C49.9,1.1,34.8,4.8,26.6,8.5c-1.1,0.5-2.7,1.2-3.7,1.7c-4.8,2.2-10.8,6.3-14.6,9.9
	C2.8,25.3,0,31.3,0,37.7c0,7.1,2.1,11.6,8.1,17.5c4.5,4.4,7,6.3,13.1,9.4c10,5.1,21.3,8.4,36.7,10.5c7.5,1.1,28.2,1.1,34.7,0
	c12.1-1.9,17.1-3.1,25.2-5.8c10.2-3.4,18.6-8.3,24.2-14c5.7-5.8,8.1-10.9,8.1-17.7c0-10.7-8.1-20.2-23.8-27.9
	c-2.4-1.2-9.5-3.9-12-4.6c-6.8-1.9-12.4-3.2-19.1-4.2C90.1,0.1,68-0.3,60.9,0.3L60.9,0.3z M88.3,5.9c9,0.7,22.6,3.4,25.7,5.1
	c1.8,0.9,1.1,2.2-2.5,4.7c-8.8,6.2-15.6,9.4-30.9,14.6c-9.2,3.1-15.4,3.8-18.6,2c-3.9-2.2-4.2-6.6-0.9-14.4
	c2.8-6.6,4.5-9.1,7.8-11.1C71.9,5.1,76.2,4.9,88.3,5.9L88.3,5.9z M49.8,8c1.1,0.6,1,1.2-0.3,2.8c-8.3,10-17.3,25.4-25.7,44
	c-1.8,4-2.5,4.1-6.4,1.3c-12-8.4-15-18.8-8.4-28.3c2-2.8,6.7-7.4,7.6-7.4c0.3,0,0.5-0.2,0.6-0.3c0.2-0.5,4.8-3.2,8.5-5.1
	c5.2-2.6,15.6-6,21.8-7.2c0.6-0.1,1.1-0.2,1.2-0.3C48.9,7.6,49.3,7.8,49.8,8L49.8,8z M130.3,18.2c0,0.2,0.5,0.6,1.2,1
	c0.6,0.3,2.7,1.8,4.5,3.3c5.9,4.8,8.8,10.5,8.4,16.5c-0.3,3.5-1,5.4-3.3,8.7c-2.6,3.7-4.8,5.8-9.4,8.9c-6.3,4.2-17.4,8.6-27.3,10.7
	c-3.3,0.7-3.6,0.7-4.2,0c-0.6-0.6-0.6-0.8,0.1-1.9c0.4-0.6,1.1-1.5,1.5-1.8c1.5-1.5,10.8-15,10.8-15.6c0-0.1,0.4-0.9,1-1.8
	c2-3.2,9.2-17.1,11.3-21.9c0.4-0.8,0.9-1.8,1-2.1c0.2-0.3,0.7-1.5,1.2-2.5c0.7-1.5,1-1.8,2.1-1.8C129.7,17.9,130.3,18,130.3,18.2z
	 M87.9,43.2c2.2,1.1,3.9,3.6,3.9,5.9c0,2.5-2.9,10.2-5.4,14.7c-2.6,4.5-6.8,6.8-12.4,6.8c-11.1,0-32.7-3.3-37.5-5.8
	c-1.5-0.8-1.5-1.4,0.2-3c4.2-4.1,15.3-9.8,27.1-14.1c6.3-2.3,8.5-3,12.2-4c0.8-0.2,2.2-0.6,3-0.8C81.8,42,85.8,42.2,87.9,43.2
	L87.9,43.2z"/>
</svg>
