<?xml version="1.0" encoding="utf-8"?>
<!-- Generator: Adobe Illustrator 28.0.0, SVG Export Plug-In . SVG Version: 6.00 Build 0)  -->
<svg version="1.1" id="Layer_1" xmlns="http://www.w3.org/2000/svg" xmlns:xlink="http://www.w3.org/1999/xlink" x="0px" y="0px"
	 viewBox="0 0 150 150" style="enable-background:new 0 0 150 150;" xml:space="preserve">
<style type="text/css">
	.st0{fill:url(#outer_00000071518917982191901100000010685175233336218265_);}
	.st1{fill:url(#SVGID_1_);}
	.st2{opacity:0.4;fill:url(#SVGID_00000029036834091470839030000000377063661973676679_);enable-background:new    ;}
	.st3{fill:#FFFFFF;}
	.st4{opacity:0.4;fill:url(#SVGID_00000108310898544131300750000014639042441632096919_);enable-background:new    ;}
	.st5{fill:#565F64;}
	.st6{fill:url(#SVGID_00000060749734076277651220000006568503982819380658_);}
	.st7{fill:#A4AAAE;fill-opacity:0.6;}
	.st8{fill:#333E46;}
	.st9{fill:url(#SVGID_00000078044567781366920510000014739637588043494280_);}
	.st10{fill:url(#SVGID_00000178914263325142380970000015262154032782737297_);fill-opacity:0.8;}
	.st11{opacity:0.8;fill:url(#SVGID_00000173849175226279326030000005826119214510986678_);enable-background:new    ;}
	.st12{fill:url(#SVGID_00000182526237958442384530000017114427329363857837_);}
	.st13{fill:url(#SVGID_00000121255134665616494170000002238056266539491993_);}
	.st14{fill:url(#SVGID_00000019658750143585330030000003909316075614459529_);}
	.st15{fill:url(#SVGID_00000176000989779065037720000002472213279280043923_);}
	.st16{fill:url(#SVGID_00000107573641513412598810000014054737757768160911_);}
	.st17{fill:url(#SVGID_00000047057523654262186210000012250231720937021616_);}
	.st18{fill:url(#SVGID_00000027566088887386138340000013579753879079334587_);}
	.st19{fill:#FBFBFB;}
	.st20{fill:#333F47;}
</style>
<g>
	
		<linearGradient id="outer_00000014619744170314877210000002142649909920586121_" gradientUnits="userSpaceOnUse" x1="1.4543" y1="85.6883" x2="4.3345" y2="88.1005" gradientTransform="matrix(39.0625 0 0 39.0625 -38.0625 -3319.3125)">
		<stop  offset="0" style="stop-color:#FFFFFF"/>
		<stop  offset="0.1" style="stop-color:#E7E8E6"/>
		<stop  offset="0.1" style="stop-color:#CDD0D0"/>
		<stop  offset="0.2" style="stop-color:#B5BBBD"/>
		<stop  offset="0.2" style="stop-color:#A5ACAF"/>
		<stop  offset="0.3" style="stop-color:#9BA3A7"/>
		<stop  offset="0.3" style="stop-color:#98A0A4"/>
		<stop  offset="0.4" style="stop-color:#828A8F"/>
		<stop  offset="0.5" style="stop-color:#667075"/>
		<stop  offset="0.6" style="stop-color:#535C63"/>
		<stop  offset="0.7" style="stop-color:#475158"/>
		<stop  offset="0.8" style="stop-color:#434D54"/>
		<stop  offset="1" style="stop-color:#475157"/>
	</linearGradient>
	<path id="outer_24_" style="fill:url(#outer_00000014619744170314877210000002142649909920586121_);" d="M148.4,75
		c0,40.5-32.8,73.4-73.4,73.4S1.6,115.5,1.6,75S34.5,1.6,75,1.6S148.4,34.5,148.4,75z M75,6.1C36.8,6.1,6.1,36.8,6.1,75
		S37,143.9,75,143.9c38.2,0,68.9-30.9,68.9-68.9C143.9,36.8,113.2,6.1,75,6.1z"/>
	
		<linearGradient id="SVGID_1_" gradientUnits="userSpaceOnUse" x1="1.5427" y1="85.7579" x2="4.2427" y2="88.0259" gradientTransform="matrix(39.0625 0 0 39.0625 -38.0625 -3319.3125)">
		<stop  offset="0" style="stop-color:#0B1F2A"/>
		<stop  offset="0.2" style="stop-color:#333F47"/>
		<stop  offset="0.5" style="stop-color:#777F84"/>
		<stop  offset="0.5" style="stop-color:#81898D"/>
		<stop  offset="0.7" style="stop-color:#B3B8B8"/>
		<stop  offset="0.8" style="stop-color:#D2D5D3"/>
		<stop  offset="0.8" style="stop-color:#DEE0DD"/>
		<stop  offset="1" style="stop-color:#FBFBFB"/>
	</linearGradient>
	<path class="st1" d="M75,6.1C36.8,6.1,6.1,36.8,6.1,75S37,143.9,75,143.9c38.2,0,68.9-30.9,68.9-68.9C143.9,36.8,113.2,6.1,75,6.1z
		 M75,139.5c-35.6,0-64.5-28.8-64.5-64.5S39.4,10.5,75,10.5s64.5,28.8,64.5,64.5S110.6,139.5,75,139.5z"/>
	
		<linearGradient id="SVGID_00000118395894807205748400000013260279973518511257_" gradientUnits="userSpaceOnUse" x1="1690.1223" y1="370.3088" x2="1691.4364" y2="373.9207" gradientTransform="matrix(-39.0625 0 0 -39.0625 66121.0391 14610.6484)">
		<stop  offset="0" style="stop-color:#E1E3E1"/>
		<stop  offset="0.1" style="stop-color:#C1C5C4"/>
		<stop  offset="0.3" style="stop-color:#9BA1A2"/>
		<stop  offset="0.5" style="stop-color:#7D8487"/>
		<stop  offset="0.7" style="stop-color:#687074;stop-opacity:0"/>
		<stop  offset="0.8" style="stop-color:#5B6469;stop-opacity:0"/>
		<stop  offset="1" style="stop-color:#576065;stop-opacity:0"/>
	</linearGradient>
	<path style="opacity:0.4;fill:url(#SVGID_00000118395894807205748400000013260279973518511257_);enable-background:new    ;" d="
		M75,148.4c40.5,0,73.4-32.8,73.4-73.4S115.5,1.6,75,1.6S1.6,34.5,1.6,75S34.5,148.4,75,148.4z M75,0c41.2,0,75,33.8,75,75
		s-33.8,75-75,75S0,116.2,0,75S33.8,0,75,0z"/>
	<path class="st3" d="M5.2,75.2C5.2,36.8,36.3,5.2,75,5.2s69.8,31.4,69.8,70.1c0,38.4-31.2,69.6-69.8,69.6S5.2,113.7,5.2,75.2z
		 M27,27C14.5,39.4,6.8,56.5,6.8,75.2s7.7,35.9,19.9,48c12.4,12.2,29.5,19.9,48.3,19.9s35.9-7.5,48-19.9
		c12.4-12.2,19.9-29.3,19.9-48S135.2,39.4,123,27S93.8,6.8,75,6.8S39.1,14.5,27,27L27,27z"/>
	
		<linearGradient id="SVGID_00000018205663993545191640000014403388183674868104_" gradientUnits="userSpaceOnUse" x1="2.0665" y1="85.4605" x2="3.7223" y2="88.3283" gradientTransform="matrix(39.0625 0 0 39.0625 -38.0625 -3319.3125)">
		<stop  offset="0" style="stop-color:#E1E3E1"/>
		<stop  offset="0.1" style="stop-color:#C1C5C4"/>
		<stop  offset="0.3" style="stop-color:#9BA1A2"/>
		<stop  offset="0.5" style="stop-color:#7D8487"/>
		<stop  offset="0.7" style="stop-color:#687074;stop-opacity:0"/>
		<stop  offset="0.8" style="stop-color:#5B6469;stop-opacity:0"/>
		<stop  offset="1" style="stop-color:#576065;stop-opacity:0"/>
	</linearGradient>
	<path style="opacity:0.4;fill:url(#SVGID_00000018205663993545191640000014403388183674868104_);enable-background:new    ;" d="
		M75,139.7c-17.3,0-33.5-6.8-45.7-19s-19-28.4-19-45.7s6.8-33.5,19-45.7s28.4-19,45.7-19s33.5,6.8,45.7,19s19,28.4,19,45.7
		s-6.8,33.5-19,45.7S92.3,139.7,75,139.7z M75,137.8c16.6,0,32.6-6.6,44.3-18.3c12-12,18.3-27.7,18.3-44.3s-6.6-32.6-18.3-44.3
		c-12-12-27.7-18.3-44.3-18.3s-32.6,6.6-44.3,18.3C18.8,42.4,12.2,58.4,12.2,75s6.6,32.6,18.3,44.3C42.4,131.2,58.4,137.8,75,137.8
		L75,137.8z"/>
	<path class="st3" d="M132,105.5c-1.2-0.9-46.4-36.8-46.4-36.8L75,8.4c-0.7,0.2-1.6,0.9-2.1,1.9l-7.5,58.6l-46.6,35.9
		c0,0-0.9,1.2-1.4,1.9c-0.2,0.5-0.2,1.2-0.2,1.9l57.7-23.7l57.7,23.7C132.9,107.3,132.4,106.2,132,105.5L132,105.5z"/>
	<path class="st5" d="M75.5,76.9L75,87.7l53,21.3c1.9,0.9,3.3,0.5,4.7-0.5L76.2,76.6C75.9,76.4,75.5,76.6,75.5,76.9z"/>
	
		<linearGradient id="SVGID_00000034774916568438435720000008984356939585295232_" gradientUnits="userSpaceOnUse" x1="3.6437" y1="87.338" x2="3.5417" y2="87.506" gradientTransform="matrix(39.0625 0 0 39.0625 -38.0625 -3319.3125)">
		<stop  offset="0" style="stop-color:#27343C"/>
		<stop  offset="1" style="stop-color:#00111E;stop-opacity:0"/>
	</linearGradient>
	<path style="fill:url(#SVGID_00000034774916568438435720000008984356939585295232_);" d="M75.5,76.9c0,0,3,5.4,6.6,9.1
		c4.9,5.4,11.5,9.1,11.5,9.1L128,109c1.9,0.9,3.3,0.5,4.7-0.5L76.2,76.6C75.9,76.4,75.5,76.6,75.5,76.9z"/>
	<path class="st7" d="M132.4,106.4c0-0.2-0.2-0.5-0.5-0.9L83.7,70.1l-6.6,4.2c0,0,0.5,0.2,0.7,0c0.7-0.2,2.1-0.5,3.5,0
		C82.5,74.8,132.4,106.6,132.4,106.4C132.4,106.6,132.4,106.6,132.4,106.4L132.4,106.4z"/>
	<path class="st8" d="M130.8,104.3l-45-35.6l-2.1,1.4l48.3,35.6C131.7,105.2,131.2,104.8,130.8,104.3L130.8,104.3z"/>
	<path class="st5" d="M76.2,73.4l-0.2,0.2c0,0,0,0.5,0.5,0.2c0.2-0.2,7-3.8,9.4-5.2l-8.2-56.2c-0.2-2.1-1.2-3-2.8-3.8l0.9,65.2
		L76.2,73.4L76.2,73.4z"/>
	<path class="st7" d="M72.2,12.4v3L67,67.3c0,0.7,0.2,1.4,0.9,1.9l3,2.3l2.1-57.2l0.2-4.5C72.7,10.3,72.4,11.2,72.2,12.4L72.2,12.4z
		 M69.4,72.4l-2.8-2.3L19,104.5c0,0-1.4,0.9-1.6,1.9l1.6-0.9l49.9-31.4C69.8,73.6,70.1,73.1,69.4,72.4L69.4,72.4z"/>
	<path class="st5" d="M74.3,76.9c0-0.2-0.2-0.5-0.5-0.2l-56.7,32.1c1.4,0.9,2.8,1.2,4.7,0.5l53-21.3L74.3,76.9z"/>
	
		<linearGradient id="SVGID_00000079462539994208594310000009442288720681452452_" gradientUnits="userSpaceOnUse" x1="3.3492" y1="86.7211" x2="3.1812" y2="86.4511" gradientTransform="matrix(39.0625 0 0 39.0625 -38.0625 -3319.3125)">
		<stop  offset="0.1" style="stop-color:#02131F"/>
		<stop  offset="0.9" style="stop-color:#02131F;stop-opacity:0"/>
	</linearGradient>
	<path style="fill:url(#SVGID_00000079462539994208594310000009442288720681452452_);" d="M75.9,73.6l0.2-0.2L75.9,73.6
		c0,0,0,0.2,0.2,0.2h0.2c0.2-0.2,7-3.8,9.4-5.2l-0.9-6.8l-7.3-49.5c0-0.9-0.2-1.6-0.7-2.1c0,0,3.5,47.3,3.5,52.5
		C80.4,69.6,75.9,73.6,75.9,73.6L75.9,73.6z"/>
	
		<linearGradient id="SVGID_00000000918952387773074060000012519964995382835633_" gradientUnits="userSpaceOnUse" x1="2.8933" y1="87.1546" x2="2.6413" y2="87.2266" gradientTransform="matrix(39.0625 0 0 39.0625 -38.0625 -3319.3125)">
		<stop  offset="0.2" style="stop-color:#02131F"/>
		<stop  offset="0.9" style="stop-color:#02131F;stop-opacity:0"/>
	</linearGradient>
	<path style="fill:url(#SVGID_00000000918952387773074060000012519964995382835633_);fill-opacity:0.8;" d="M74.3,76.9
		c0-0.2-0.2-0.5-0.5-0.2l-56.7,32.1c1.4,0.9,2.8,1.2,4.7,0.5l53-21.3L74.3,76.9z"/>
	
		<linearGradient id="SVGID_00000125582662544870556410000016990290540125961870_" gradientUnits="userSpaceOnUse" x1="2.2219" y1="87.4886" x2="2.1859" y2="87.3986" gradientTransform="matrix(39.0625 0 0 39.0625 -38.0625 -3319.3125)">
		<stop  offset="0" style="stop-color:#02131F"/>
		<stop  offset="0.1" style="stop-color:#02131F"/>
		<stop  offset="1" style="stop-color:#02131F;stop-opacity:0"/>
	</linearGradient>
	<path style="opacity:0.8;fill:url(#SVGID_00000125582662544870556410000016990290540125961870_);enable-background:new    ;" d="
		M21.8,109l53-21.3l-0.5-10.3c-0.9,2.8-2.6,5.9-7,8.2c-3.3,1.9-34.7,17.3-45.9,22.7c-0.7,0.5-1.6,0.7-2.1,0.9
		C20.2,109.7,20.9,109.5,21.8,109L21.8,109z"/>
	
		<linearGradient id="SVGID_00000171717834542930957620000005092590662430397060_" gradientUnits="userSpaceOnUse" x1="3.1105" y1="86.0073" x2="2.9065" y2="86.0313" gradientTransform="matrix(39.0625 0 0 39.0625 -38.0625 -3319.3125)">
		<stop  offset="0.3" style="stop-color:#02131F"/>
		<stop  offset="0.3" style="stop-color:#02131F"/>
		<stop  offset="0.8" style="stop-color:#02131F;stop-opacity:0"/>
	</linearGradient>
	<path style="fill:url(#SVGID_00000171717834542930957620000005092590662430397060_);" d="M76.2,73.4l-0.2,0.2c0,0,0,0.5,0.5,0.2
		c0.2-0.2,7-3.8,9.4-5.2l-8.2-56.2c-0.2-2.1-1.2-3-2.8-3.8l0.9,65.2L76.2,73.4L76.2,73.4z"/>
	
		<linearGradient id="SVGID_00000173874315477354104470000014139004654051858571_" gradientUnits="userSpaceOnUse" x1="3.1169" y1="86.0038" x2="2.9788" y2="86.0218" gradientTransform="matrix(39.0625 0 0 39.0625 -38.0625 -3319.3125)">
		<stop  offset="0.4" style="stop-color:#27343C"/>
		<stop  offset="1" style="stop-color:#3B474E;stop-opacity:0"/>
	</linearGradient>
	<path style="fill:url(#SVGID_00000173874315477354104470000014139004654051858571_);" d="M76.2,73.4l-0.2,0.2c0,0,0,0.5,0.5,0.2
		c0.2-0.2,7-3.8,9.4-5.2l-8.2-56.2c-0.2-2.1-1.2-3-2.8-3.8l0.9,65.2L76.2,73.4L76.2,73.4z"/>
	
		<linearGradient id="SVGID_00000023982558365493285810000000914106826301594539_" gradientUnits="userSpaceOnUse" x1="0.9528" y1="86.9443" x2="2.6268" y2="87.9103" gradientTransform="matrix(39.0625 0 0 39.0625 -38.0625 -3319.3125)">
		<stop  offset="0" style="stop-color:#24303A;stop-opacity:0"/>
		<stop  offset="0" style="stop-color:#25323B;stop-opacity:0"/>
		<stop  offset="0.1" style="stop-color:#27343C"/>
	</linearGradient>
	<path style="fill:url(#SVGID_00000023982558365493285810000000914106826301594539_);" d="M12,104.1c-1.6-3.8-11-22-0.7-57.2h-4
		c-2.1,7-3.8,11.2-4.7,17.6c0,0-0.5,2.3-0.7,4.9s-0.2,4-0.2,5.6c0,14.1,3.5,22.3,3.5,22.3c3.8,11.7,10.3,22.3,19.2,30.2
		c7.7,6.8,19.7,12,29.5,13.8C52.3,141.1,24.1,129.1,12,104.1L12,104.1z"/>
	
		<linearGradient id="SVGID_00000078735842483710678260000013340130096760907702_" gradientUnits="userSpaceOnUse" x1="2.8914" y1="87.2184" x2="2.8914" y2="86.9304" gradientTransform="matrix(39.0625 0 0 39.0625 -38.0625 -3319.3125)">
		<stop  offset="0.3" style="stop-color:#A5ABAF"/>
		<stop  offset="1" style="stop-color:#A5ABAF;stop-opacity:0"/>
	</linearGradient>
	<path style="fill:url(#SVGID_00000078735842483710678260000013340130096760907702_);" d="M75.9,76.4h-2.1c0.2,0,0.5,0,0.5,0.2
		l0.5,10.8H75l0.5-10.8C75.5,76.4,75.7,76.2,75.9,76.4L75.9,76.4z"/>
	
		<linearGradient id="SVGID_00000072239442995138032780000002553404080048754344_" gradientUnits="userSpaceOnUse" x1="3.8334" y1="85.1124" x2="3.8334" y2="88.7724" gradientTransform="matrix(39.0625 0 0 39.0625 -38.0625 -3319.3125)">
		<stop  offset="0" style="stop-color:#DEE0DD"/>
		<stop  offset="0" style="stop-color:#C5C9C7"/>
		<stop  offset="0" style="stop-color:#9EA4A5"/>
		<stop  offset="0" style="stop-color:#82898C"/>
		<stop  offset="0" style="stop-color:#71797D"/>
		<stop  offset="0" style="stop-color:#6B7378"/>
		<stop  offset="0.2" style="stop-color:#333F47"/>
		<stop  offset="0.5" style="stop-color:#27343C"/>
		<stop  offset="0.8" style="stop-color:#333F47"/>
		<stop  offset="1" style="stop-color:#434D54"/>
	</linearGradient>
	<path style="fill:url(#SVGID_00000072239442995138032780000002553404080048754344_);" d="M98.4,5.4c24.6,9.4,47.8,35.2,47.8,67.7
		c0,39.4-31.4,71.5-71.2,71.5v3.8c39.8,0,73.4-32.8,73.4-73.4C148.4,42.7,127.7,15.5,98.4,5.4L98.4,5.4z"/>
	
		<linearGradient id="SVGID_00000157288370454170483590000011596892064456566934_" gradientUnits="userSpaceOnUse" x1="2.8944" y1="85.0164" x2="2.9124" y2="85.0164" gradientTransform="matrix(39.0625 0 0 39.0625 -38.0625 -3319.3125)">
		<stop  offset="0" style="stop-color:#DEE0DD"/>
		<stop  offset="0" style="stop-color:#C5C9C7"/>
		<stop  offset="0" style="stop-color:#9EA4A5"/>
		<stop  offset="0" style="stop-color:#82898C"/>
		<stop  offset="0" style="stop-color:#71797D"/>
		<stop  offset="0" style="stop-color:#6B7378"/>
		<stop  offset="0.2" style="stop-color:#333F47"/>
		<stop  offset="0.5" style="stop-color:#27343C"/>
		<stop  offset="0.8" style="stop-color:#333F47"/>
		<stop  offset="1" style="stop-color:#434D54"/>
	</linearGradient>
	<path style="fill:url(#SVGID_00000157288370454170483590000011596892064456566934_);" d="M75.7,1.6H75H75.7z"/>
	
		<linearGradient id="SVGID_00000152945159664905231080000013113494813286568846_" gradientUnits="userSpaceOnUse" x1="4.4117" y1="85.46" x2="3.6017" y2="86.648" gradientTransform="matrix(39.0625 0 0 39.0625 -38.0625 -3319.3125)">
		<stop  offset="0.7" style="stop-color:#27343C"/>
		<stop  offset="0.7" style="stop-color:#2B373F"/>
		<stop  offset="0.7" style="stop-color:#36424A"/>
		<stop  offset="0.7" style="stop-color:#49545B"/>
		<stop  offset="0.8" style="stop-color:#646D73;stop-opacity:0"/>
		<stop  offset="0.8" style="stop-color:#868D92;stop-opacity:0"/>
		<stop  offset="0.8" style="stop-color:#B0B5B8;stop-opacity:0"/>
		<stop  offset="0.8" style="stop-color:#E1E3E4;stop-opacity:0"/>
		<stop  offset="0.8" style="stop-color:#FFFFFF;stop-opacity:0"/>
	</linearGradient>
	<path style="fill:url(#SVGID_00000152945159664905231080000013113494813286568846_);" d="M137.8,47.3C121.4,9.6,84.4,7.5,82.3,7.3
		H82c28.4,5.2,46.4,23.7,52.7,43.1v0.2c2.8,7.5,4.2,15.5,4.5,24.1c0.2,8.2-1.6,17.3-5.2,25.8c-0.2,1.2-0.5,2.6-0.7,2.6h3.8
		C148.4,82,143.4,60.7,137.8,47.3z"/>
	<path class="st19" d="M5.2,75.2C5.2,36.8,36.3,5.2,75,5.2s69.8,31.4,69.8,70.1c0,38.4-31.2,69.6-69.8,69.6S5.2,113.7,5.2,75.2z
		 M27,27C14.5,39.4,6.8,56.5,6.8,75.2s7.7,35.9,19.9,48c12.4,12.2,29.5,19.9,48.3,19.9s35.9-7.5,48-19.9
		c12.4-12.2,19.9-29.3,19.9-48S135.2,39.4,123,27S93.8,6.8,75,6.8S39.1,14.5,27,27L27,27z"/>
	<path class="st20" d="M18.5,105l47.8-34.5c2.6,1.4,6.8,3.3,7.3,3.3c0.5,0.2,0.5-0.2,0.5-0.2l-5.9-4.9c-0.7-0.5-0.9-1.2-0.9-1.9
		l5.6-56.5c-0.2,0.2-0.2,0.7-0.5,0.9c-0.2,0.5-0.2,0.7-0.2,1.2L64,68.9l-45,35.4C18.8,104.5,18.5,104.8,18.5,105L18.5,105z"/>
</g>
</svg>
