<?xml version="1.0" encoding="utf-8"?>
<!-- Generator: Adobe Illustrator 28.0.0, SVG Export Plug-In . SVG Version: 6.00 Build 0)  -->
<svg version="1.1" id="Layer_1" xmlns="http://www.w3.org/2000/svg" xmlns:xlink="http://www.w3.org/1999/xlink" x="0px" y="0px"
	 viewBox="0 0 150 128.4" style="enable-background:new 0 0 150 128.4;" xml:space="preserve">
<style type="text/css">
	.st0{fill:url(#SVGID_1_);}
	.st1{fill:url(#SVGID_00000034802066751910082840000014627334187598868878_);}
	.st2{fill:url(#SVGID_00000098204099803047818640000017121568132560156063_);}
	.st3{fill:url(#SVGID_00000065795086241877459720000004989313622204168893_);}
	.st4{fill:#FFFFFF;}
	.st5{fill:url(#SVGID_00000110468151576318055240000002475083654333426622_);}
	.st6{fill:url(#SVGID_00000101795678998516889830000014927948991524940445_);}
	.st7{fill:#8C8C8C;}
	.st8{fill:#4D4D4D;}
	.st9{fill:#252525;}
	.st10{fill:url(#SVGID_00000047039598340622464780000013388745471278037139_);}
</style>
<g>
	
		<linearGradient id="SVGID_1_" gradientUnits="userSpaceOnUse" x1="-2020.275" y1="-956.1726" x2="-2020.275" y2="-964.5366" gradientTransform="matrix(12.5 0 0 -12.5 25328.4375 -11950.2617)">
		<stop  offset="0.194" style="stop-color:#FFFFFF"/>
		<stop  offset="0.208" style="stop-color:#F8F8F8"/>
		<stop  offset="0.366" style="stop-color:#AEAEAE"/>
		<stop  offset="0.513" style="stop-color:#707070"/>
		<stop  offset="0.647" style="stop-color:#404040"/>
		<stop  offset="0.764" style="stop-color:#1D1D1D"/>
		<stop  offset="0.86" style="stop-color:#080808"/>
		<stop  offset="0.922" style="stop-color:#000000"/>
	</linearGradient>
	<path class="st0" d="M144.8,48.7c-1.4-0.4-2.9-0.6-6.2-1c-13.5-0.6-46.7-1.8-63.7-1.8c-16.9,0-50.2,1.3-63.7,1.8
		c-3.3,0.4-4.8,0.6-6.2,1c-4.2,1-5.2,2.5-5.2,5.5V75c0,3,3.2,5.1,5.5,5.5c2.2,0.4,3.7,0.6,6,0.8c12,0.7,40,2.3,63.5,2.3
		c23.5,0,51.5-1.6,63.5-2.3c2.4-0.2,3.8-0.4,6-0.8c2.2-0.4,5.5-2.5,5.5-5.5V54.2C150,51.2,149.1,49.7,144.8,48.7L144.8,48.7z"/>
	
		<radialGradient id="SVGID_00000093863406052794800750000007666477804382529170_" cx="-2023.6437" cy="-953.9551" r="8.3678" gradientTransform="matrix(12.5 0 0 -12.5 25328.4375 -11950.2617)" gradientUnits="userSpaceOnUse">
		<stop  offset="0.202" style="stop-color:#FFFFFF"/>
		<stop  offset="0.382" style="stop-color:#FDFDFD"/>
		<stop  offset="0.487" style="stop-color:#F4F4F4"/>
		<stop  offset="0.573" style="stop-color:#E6E6E6"/>
		<stop  offset="0.648" style="stop-color:#D2D2D2"/>
		<stop  offset="0.689" style="stop-color:#C4C4C4"/>
		<stop  offset="1" style="stop-color:#333333"/>
	</radialGradient>
	<path style="fill:url(#SVGID_00000093863406052794800750000007666477804382529170_);" d="M21,49.5c6.6-23,28.4-39.9,54.2-39.9
		c25.8,0,47.5,16.8,54.1,39.7c0,0.1,0,0.1,0.1,0.2c3.8-0.4,7.3-1.1,9.7-1.7c0-0.1-0.1-0.2-0.1-0.3C131.5,20.1,105.8,0,75.2,0
		C44.6,0,18.8,20.2,11.3,47.7C14.7,48.6,17.2,49,21,49.5L21,49.5z"/>
	
		<radialGradient id="SVGID_00000073714619806965649940000010069108850765542531_" cx="-2003.3931" cy="-967.3582" r="17.427" gradientTransform="matrix(12.5 0 0 -12.5 25328.4375 -11950.2617)" gradientUnits="userSpaceOnUse">
		<stop  offset="0.202" style="stop-color:#FFFFFF"/>
		<stop  offset="0.368" style="stop-color:#E4E4E4"/>
		<stop  offset="0.594" style="stop-color:#C4C4C4"/>
		<stop  offset="1" style="stop-color:#333333"/>
	</radialGradient>
	<path style="fill:url(#SVGID_00000073714619806965649940000010069108850765542531_);" d="M129.2,79.7c-0.1,0.2-0.1,0.4-0.2,0.5
		c-7,22.4-28.5,38.7-53.8,38.7c-25.5,0-47.1-16.5-54-39.2c-4.2,0.7-5.6,1-9.8,1.6c7.7,27.2,33.3,47.2,63.7,47.2
		c30.4,0,56.1-20,63.8-47.2C135.3,80.8,133.2,80.4,129.2,79.7L129.2,79.7z"/>
	
		<radialGradient id="SVGID_00000129896833054619973340000013632457267963302065_" cx="-2021.6338" cy="-963.5125" r="5.3501" gradientTransform="matrix(12.5 0 0 -12.5 25328.4375 -11950.2617)" gradientUnits="userSpaceOnUse">
		<stop  offset="0.202" style="stop-color:#FFFFFF"/>
		<stop  offset="0.368" style="stop-color:#E4E4E4"/>
		<stop  offset="0.594" style="stop-color:#C4C4C4"/>
		<stop  offset="1" style="stop-color:#333333"/>
	</radialGradient>
	<path style="fill:url(#SVGID_00000129896833054619973340000013632457267963302065_);" d="M22.4,49.4c1.6-0.7,3.1-1.7,5.5-2.4
		c7.2-18.6,25.6-31.9,47.3-31.9c21.6,0,40,13.2,47.2,31.7c0,0.1,0.1,0.1,0.1,0.2c1.2,0.4,4.9,1.9,6,2.4c0.2,0,0.5,0,0.9,0
		c0-0.1,0-0.1-0.1-0.2C122.7,26.4,101,9.6,75.2,9.6C49.4,9.6,27.7,26.5,21,49.5C21.4,49.5,22.2,49.5,22.4,49.4L22.4,49.4z"/>
	<path class="st4" d="M74.8,11.1c24.2,0,45.6,14.4,53.7,38.2l0.1,0.2c0.1,0,0.6,0,0.9,0c0-0.1,0-0.1-0.1-0.2
		C122.7,26.4,101,9.6,75.2,9.6C49.4,9.6,27.7,26.5,21,49.5c0.5,0,0.8,0,1.3,0C29.6,26.9,50.8,11.1,74.8,11.1L74.8,11.1z"/>
	
		<radialGradient id="SVGID_00000165956910796801187910000013887687518631259023_" cx="-2017.3163" cy="-968.9832" r="10.1516" gradientTransform="matrix(12.5 0 0 -12.5 25328.4375 -11950.2617)" gradientUnits="userSpaceOnUse">
		<stop  offset="0.202" style="stop-color:#FFFFFF"/>
		<stop  offset="0.368" style="stop-color:#E4E4E4"/>
		<stop  offset="0.594" style="stop-color:#C4C4C4"/>
		<stop  offset="1" style="stop-color:#333333"/>
	</radialGradient>
	<path style="fill:url(#SVGID_00000165956910796801187910000013887687518631259023_);" d="M127.9,79.7c-1.7,1-3.9,1.9-5.6,2.4
		c0,0.1-0.1,0.3-0.1,0.4c-7.5,18-25.6,30.7-46.9,30.7c-21.4,0-39.6-12.9-47-31.1c-2-0.6-5-1.9-6.1-2.5c-0.4,0-0.6,0-0.9,0
		c6.9,22.7,28.4,39.2,54,39.2c25.4,0,46.9-16.4,53.9-38.9c0,0,0.1-0.3,0.1-0.3C128.8,79.7,128.2,79.7,127.9,79.7L127.9,79.7z"/>
	
		<radialGradient id="SVGID_00000071552262354970870740000002599937272469692835_" cx="-2020.3555" cy="-957.0795" r="8.0671" gradientTransform="matrix(12.5 0 0 -12.5 25328.4375 -11950.2617)" gradientUnits="userSpaceOnUse">
		<stop  offset="0.202" style="stop-color:#FFFFFF"/>
		<stop  offset="0.397" style="stop-color:#FDFDFD"/>
		<stop  offset="0.51" style="stop-color:#F4F4F4"/>
		<stop  offset="0.603" style="stop-color:#E6E6E6"/>
		<stop  offset="0.684" style="stop-color:#D2D2D2"/>
		<stop  offset="0.728" style="stop-color:#C4C4C4"/>
		<stop  offset="1" style="stop-color:#4D4D4D"/>
	</radialGradient>
	<path style="fill:url(#SVGID_00000071552262354970870740000002599937272469692835_);" d="M143.6,50.2c-3.6-0.4-6-0.4-14.7-0.7
		c-0.4,0-0.8,0-1.2,0C112,48.9,88.4,48.2,75,48.2c-13.4,0-37,0.7-52.8,1.3c-0.4,0-0.8,0-1.2,0c-8.7,0.3-11.1,0.3-14.7,0.7
		c-3.6,0.4-6.4,2-6.4,4.7v19.3c0,2.7,3.4,4.8,6.4,4.8c0,0,38.1,2.3,68.6,2.4c30.6,0,68.6-2.4,68.6-2.4c3,0,6.4-2.2,6.4-4.8V54.8
		C150,52.2,147.2,50.6,143.6,50.2L143.6,50.2z"/>
	<path class="st4" d="M127.9,79.7c-7.5,22.2-28.5,37.6-52.2,37.6c-24,0-45.2-14.2-53.5-37.6c-0.3,0-0.6,0-0.9,0
		c6.9,22.7,28.4,39.2,54,39.2c25.6,0,47.1-16.5,54-39.2C128.8,79.7,128.3,79.7,127.9,79.7L127.9,79.7z"/>
	<path class="st7" d="M127.9,79.7L127.9,79.7c-1.8,1-3.9,1.9-5.7,2.4c0,0.1-0.1,0.3-0.1,0.4c-2.4,5.7-5.8,10.9-10.1,15.3
		C118.7,92.9,124.2,86.8,127.9,79.7L127.9,79.7z"/>
	<path class="st8" d="M39.9,99.3c-5-4.8-9-10.6-11.6-17c-2-0.6-5-1.9-6.1-2.5c1.2,2.5,2.6,4.9,4.2,7.1c3.3,4.3,7.3,8.1,11.9,11.4
		C38.8,98.6,39.3,98.9,39.9,99.3L39.9,99.3z"/>
	<path class="st9" d="M21.3,79.7L21.3,79.7L21.3,79.7c-4.2,0.7-5.6,1-9.8,1.6c0.3,1.2,0.7,2.4,1.1,3.5L21.3,79.7z"/>
	
		<radialGradient id="SVGID_00000079453697347255324940000008076493998240246186_" cx="-2020.1686" cy="-957.8873" r="5.4337" gradientTransform="matrix(12.5 0 0 -12.5 25328.4375 -11950.2617)" gradientUnits="userSpaceOnUse">
		<stop  offset="0.111" style="stop-color:#4D4D4D"/>
		<stop  offset="0.248" style="stop-color:#494949"/>
		<stop  offset="0.355" style="stop-color:#404040"/>
		<stop  offset="0.451" style="stop-color:#2F2F2F"/>
		<stop  offset="0.541" style="stop-color:#181818"/>
		<stop  offset="0.611" style="stop-color:#000000"/>
	</radialGradient>
	<path style="fill:url(#SVGID_00000079453697347255324940000008076493998240246186_);" d="M105.5,58.7c-1.3-2.8-0.8-2.5-3.5-2.6
		c-0.2-0.1-0.8-0.1-1.6-0.1c-0.8,0-1,0-1.6,0.1c-2.6,0-2.1-0.1-3,1.7c0,0-4.4,9.9-6.3,14.1L89.3,72c-0.4,0.7-0.1,0.7,0.4,0.7h4
		c0.3,0,0.4-0.1,0.5-0.3c0,0,0.6-1.3,1.3-3h9.7c0.7,1.7,1.3,2.9,1.3,3c0.1,0.2,0.3,0.3,0.5,0.3h4.1c0.6,0,0.7,0.1,0.5-0.4
		C110.9,70.5,106.1,60.2,105.5,58.7L105.5,58.7z M97,65.9c1.3-2.9,2.5-5.8,2.5-5.9c0.1-0.1,0.2-0.2,0.4-0.2c0.1-0.1,0.3-0.1,0.5-0.1
		c0.1,0,0.4,0,0.4,0.1c0.1,0,0.3,0.1,0.4,0.3c0.3,0.8,1.4,3.3,2.4,5.8H97z M44,55.9c0.4,0,0.4,0.1,0.4,0.4v15.7
		c0,0.4-0.1,0.5-0.5,0.5h-3.8c-0.4,0-0.5-0.1-0.5-0.5V56.3c0-0.3,0.1-0.4,0.4-0.4H44L44,55.9z M35.9,56.1c0.4,0,0.5,0.1,0.5,0.5
		v15.7c0,0.4-0.1,0.5-0.5,0.5h-4.5c-2.6,0-2.9,0-3.8-1.5C25.8,68.4,20.3,60,20.3,60v12.3c0,0.4-0.1,0.5-0.5,0.5h-3.3
		c-0.4,0-0.5-0.1-0.5-0.5V56.6c0-0.4,0.1-0.5,0.5-0.5h3.8c2.9,0,3.2-0.1,4.3,1.4c0.8,1.3,7.5,11.6,7.5,11.6V56.6
		c0-0.4,0.1-0.5,0.5-0.5L35.9,56.1L35.9,56.1z M134.1,56.1c0.4,0,0.5,0.1,0.5,0.5v15.7c0,0.4-0.1,0.5-0.5,0.5h-4.5
		c-2.7,0-2.9,0-3.8-1.5c-1.8-2.9-7.4-11.3-7.4-11.3v12.3c0,0.4-0.1,0.5-0.5,0.5h-3.3c-0.4,0-0.5-0.1-0.5-0.5V56.6
		c0-0.4,0.1-0.5,0.5-0.5h3.8c2.9,0,3.2-0.1,4.3,1.4c0.9,1.3,7.5,11.6,7.5,11.6V56.6c0-0.4,0.1-0.5,0.5-0.5L134.1,56.1L134.1,56.1z
		 M60.9,62.5c2.9,0.3,5.1,0.8,5.7,3.6c0,0.2,0.1,1,0.1,1.8c0,0.5,0,1.2-0.1,1.8c-0.5,2.6-2.5,3.2-5.6,3.2H48.5
		c-0.4,0-0.5-0.1-0.5-0.5v-2.6c0-0.4,0.1-0.5,0.5-0.5H61c0.5,0,0.7-0.1,0.7-0.5v-0.7v-0.4c-0.1-0.3-0.1-0.7-0.8-0.8
		c-1.4-0.1-5.5-0.4-8.3-0.7C49,65.5,48.2,64,48,62.7c-0.1-0.4-0.1-1-0.1-1.5c0-0.4,0-1.1,0.1-1.6c0.5-2.4,2.3-3.5,5.4-3.5h12
		c0.4,0,0.6,0.1,0.6,0.4v2.7c0,0.4-0.1,0.5-0.6,0.4H53.6c-0.5,0-0.7,0.2-0.8,0.7v0.7c0,0.4,0.2,0.7,0.7,0.7
		C54.9,61.9,59.3,62.3,60.9,62.5L60.9,62.5z M82.2,62.5c2.9,0.3,5.1,0.8,5.7,3.6c0,0.2,0.1,1,0.1,1.8c0,0.5,0,1.2-0.1,1.8
		c-0.5,2.6-2.5,3.2-5.6,3.2H69.8c-0.4,0-0.5-0.1-0.5-0.5v-2.6c0-0.4,0.1-0.5,0.5-0.5h12.5c0.5,0,0.7-0.1,0.7-0.5v-0.7v-0.4
		c-0.1-0.3-0.2-0.7-0.8-0.8c-1.4-0.1-5.5-0.4-8.3-0.7c-3.6-0.4-4.4-1.9-4.6-3.2c-0.1-0.4-0.1-1-0.1-1.5c0-0.4,0-1.1,0.1-1.6
		c0.5-2.4,2.3-3.5,5.4-3.5h12c0.4,0,0.6,0.1,0.6,0.4v2.7c0,0.4-0.1,0.5-0.6,0.4H74.9c-0.5,0-0.7,0.2-0.8,0.7v0.7
		c0,0.4,0.1,0.7,0.7,0.7C76.2,61.9,80.5,62.3,82.2,62.5L82.2,62.5z"/>
</g>
</svg>
