<?xml version="1.0" encoding="utf-8"?>
<!-- Generator: Adobe Illustrator 28.0.0, SVG Export Plug-In . SVG Version: 6.00 Build 0)  -->
<svg version="1.1" id="Layer_1" xmlns="http://www.w3.org/2000/svg" xmlns:xlink="http://www.w3.org/1999/xlink" x="0px" y="0px"
	 viewBox="0 0 150 97.1" style="enable-background:new 0 0 150 97.1;" xml:space="preserve">
<style type="text/css">
	.st0{fill:#CA222A;}
</style>
<path class="st0" d="M58.1,96.5c-26.4-4.1-46.3-16-54.4-32.7c-10.3-21.3,1-43.8,28-55.6c16.6-7.3,39.3-9.9,60.8-7.1
	C126.4,5.7,150,24.9,150,48c0,22.2-19.7,40.4-51.2,47.3C91.1,96.9,65.9,97.7,58.1,96.5L58.1,96.5z M68.3,89.5
	c-6.2-5.3-9.9-16.4-10.9-32.6l-0.6-9.1l-7-1.4c-8.3-1.7-16.4-4.8-21.8-8.4c-4.1-2.7-6.2-5.1-8.4-9.6l-1.3-2.7l-2.4,3.5
	C9.5,38.5,9,50.4,14.5,61.7c6.9,14.1,25.5,25.6,46.3,29c3,0.4,6,1,6.6,1.1C71.3,92.5,71.4,92.1,68.3,89.5z M93.5,89.8
	c19.7-4.5,35.3-15,41.8-28.1c3.7-7.4,4.9-14.2,3.8-20.4c-0.9-4.6-3.8-11.1-6.2-13.7l-1.5-1.6l-1.6,3.5c-3.8,7.9-14.4,13.8-30.2,17.1
	l-5.9,1.2l-0.9,9.9c-1.4,16.8-4.2,25.4-10.2,31.4l-3.1,3.2l3.8-0.4C85.3,91.4,90,90.6,93.5,89.8L93.5,89.8z M79.6,73.6
	c3.7-3.8,7.1-14.4,7.1-22.5v-2.4H63.6l0.4,5.7c0.6,8.3,3,15.3,6.4,18.7C74,76.7,76.3,76.8,79.6,73.6L79.6,73.6z M85.7,36.6
	c0.4-0.4-2.1-9.6-3.5-12.2c-1.6-3.2-5.4-6.7-7.3-6.7c-3.4,0-7.3,5.5-9.2,13c-0.7,2.5-1.2,4.9-1.2,5.3c0,0.4,1.4,1,3.2,1.1
	C70.6,37.4,85.3,37.1,85.7,36.6z M58.9,29.5C61,18.3,64.9,10.5,70,7.4L72.3,6h-3.8c-9.2,0-26.2,4.3-31.6,8c-1.6,1.1-3.5,3.2-4.3,4.6
	c-1.3,2.4-1.3,2.8-0.2,5.3c2.3,5.4,11,9.7,24.8,12.3C57.4,36.2,58.1,33.1,58.9,29.5z M104.8,33c8.2-2.9,13.6-7.5,13.6-11.6
	c0-3-3.6-6.9-8.6-9.2C103.9,9.4,93,6.9,85,6.3l-6.9-0.5l2.3,1.5c5.5,3.7,9,11.6,11.8,27c0.3,1.5,0.4,1.5,4.9,0.6
	C99.7,34.5,103.1,33.6,104.8,33L104.8,33z"/>
</svg>
